<svg width="362" height="384" viewBox="0 0 362 384" fill="none" xmlns="http://www.w3.org/2000/svg">
<path d="M187.174 125.075C187.704 125.039 188.195 125.075 188.73 125.114L190.083 126.016C190.327 126.521 190.535 127.024 190.697 127.563C190.76 127.821 190.76 127.821 190.819 128.265C190.819 128.506 190.801 128.732 190.771 128.971C190.681 129.402 190.553 129.824 190.388 130.232C189.843 131.523 189.186 132.764 188.425 133.94C186.952 136.196 185.258 138.292 183.537 140.362C183.148 140.832 182.773 141.313 182.414 141.806C182.303 141.623 182.303 141.623 182.188 141.355C182.155 141.046 182.155 141.046 182.148 140.685L182.141 140.272C182.129 139.382 182.121 138.492 182.118 137.601C182.109 134.089 182.109 134.089 182.344 132.61C182.485 131.81 182.685 131.022 182.942 130.252C183.261 129.375 183.646 128.523 184.092 127.703C184.399 127.197 184.744 126.714 185.123 126.26C185.346 126.016 185.346 126.016 185.538 125.842C185.837 125.627 186.154 125.436 186.486 125.274C186.72 125.177 186.923 125.116 187.174 125.075Z" fill="#F4FCFE"/>
<path d="M195.046 0.597835L195.461 0.638438C201.24 1.22493 206.999 2.26256 212.598 3.82577C218.753 5.58785 224.745 7.87607 230.508 10.6651C234.957 12.8284 239.31 15.2059 243.332 18.1C244.391 18.8669 245.439 19.6497 246.477 20.4482L246.664 20.5926C247.273 21.0587 247.871 21.537 248.459 22.0272C248.76 22.2753 249.063 22.5205 249.368 22.7626C251.724 24.6716 253.925 26.7639 255.951 29.0199C256.65 29.841 257.259 30.7208 257.807 31.6479C258.204 32.3307 258.563 33.0348 258.883 33.757L258.657 35.1104L257.755 35.7871C257.073 35.77 256.394 35.6945 255.725 35.5615C255.219 35.3813 254.729 35.1602 254.259 34.9006L253.742 34.6232L253.19 34.3389L252.026 33.7321C251.014 33.2043 249.998 32.6855 248.978 32.1757L248.676 32.0223C246.398 30.869 244.031 29.8982 241.6 29.1192C241.278 29.0169 240.958 28.9132 240.639 28.8079C236.73 27.5312 232.748 26.7326 228.683 26.1507C225.632 25.7284 222.558 25.4836 219.478 25.4176L218.609 25.395C214.124 25.279 209.637 25.5522 205.199 26.2116C202.097 26.701 199.041 27.4488 196.063 28.447C193.534 29.3394 191.081 30.4363 188.73 31.7268L188.358 31.9276C186.829 32.7555 185.371 33.7092 184 34.7788C182.398 36.0601 180.918 37.4857 179.482 38.9451L179.254 39.173C178.687 39.7367 178.16 40.3389 177.677 40.9753C176.825 42.2544 176.084 43.6037 175.462 45.0085C175.1 45.9197 174.809 46.857 174.589 47.8124L174.508 48.1349C174.203 49.4839 174.145 50.8779 174.068 52.2539C174.02 53.4043 174 54.557 173.978 55.7097L173.951 57.0744L173.905 59.4519L173.835 62.9753L173.723 68.5177L173.432 82.9543L173.4 84.4746C173.184 94.9863 172.95 105.496 172.701 116.003L172.658 117.765L172.577 121.168L172.572 121.448L172.428 127.457L172.369 129.873L172.363 130.144L172.166 138.637L172.114 140.987L172.108 141.319L172.076 142.643L171.907 150.288C171.869 152.131 171.817 153.96 171.587 155.792L172.714 155.566L172.875 155.338C174.499 153.045 176.175 150.79 177.903 148.573C178.715 148.966 178.715 148.966 179.053 149.18L179.445 149.464L179.651 149.615L179.867 149.773L180.384 150.152C179.697 151.199 178.974 152.222 178.218 153.22C176.752 155.197 175.314 157.195 173.905 159.214L173.105 160.35L172.672 160.966L172.482 161.237L172.311 161.481L172.166 161.684C172.029 161.898 171.916 162.103 171.812 162.333C171.767 162.575 171.767 162.575 171.744 162.836L171.69 163.452L171.661 163.786C171.568 164.932 171.537 166.078 171.514 167.228L171.501 167.885L171.467 169.585L171.431 171.334L171.361 174.74C172.365 174.356 172.365 174.356 172.818 174.11C172.908 174.055 172.999 173.997 173.089 173.937L173.414 173.734L173.757 173.513L174.523 173.034L174.731 172.906C175.724 172.292 176.739 171.712 177.747 171.13L178.042 170.961L179.707 170.003H180.158L181.286 172.258L181.061 173.161L180.882 173.264C177.757 175.064 174.658 176.909 171.587 178.8H170.91L171.023 179.057L171.135 179.477C171.167 179.91 171.162 180.343 171.158 180.776V181.153L171.149 182.339L171.147 183.144L171.135 185.116L171.32 185.084C176.786 184.123 176.786 184.123 179.482 183.988L179.707 187.372C178.129 187.706 176.536 187.969 174.934 188.159C174.558 188.204 174.182 188.251 173.806 188.301L173.075 188.391L172.741 188.434C172.433 188.473 172.123 188.495 171.812 188.5C171.429 188.448 171.059 188.373 170.684 188.274L170.797 188.572L170.91 188.951C170.939 189.273 170.939 189.273 170.941 189.614L170.944 190.011V190.915C170.947 191.627 170.947 192.338 170.944 193.049C170.939 198.756 170.741 204.463 170.571 210.17C170.45 214.26 170.332 218.354 170.24 222.446L170.226 223.114C170.055 230.548 170.055 230.548 170.556 233.898C170.703 234.822 170.865 235.742 171.043 236.659C171.153 237.241 171.257 237.824 171.356 238.407C171.492 239.183 171.632 239.959 171.776 240.735C172.043 242.191 172.281 243.653 172.489 245.118L172.667 245.22C173.215 245.525 173.742 245.866 174.246 246.239C174.509 246.463 174.754 246.707 174.977 246.97C176.116 248.427 177.039 250.081 177.914 251.705C178.642 253.081 179.254 254.493 179.736 255.975C180.118 257.221 180.41 258.493 180.609 259.78L180.67 260.137C180.887 261.596 180.864 263.056 180.858 264.531L180.853 265.474C180.844 269.2 180.797 272.927 180.749 276.653L180.706 280.095L180.702 280.423L180.686 281.74L180.664 283.756C180.554 292.934 180.453 302.112 180.361 311.29C180.136 333.168 180.136 333.168 180.136 353.091V353.447C180.14 355.685 180.148 357.922 180.158 360.16H194.144L194.369 185.116L189.632 186.018C188.504 186.176 187.377 186.334 186.249 186.469L185.798 183.086C187.433 182.639 189.089 182.362 190.76 182.08L191.906 181.886L194.144 181.507L194.146 181.265L194.257 172.644C194.274 170.988 194.295 169.331 194.32 167.675L194.326 167.014L194.333 166.615L194.338 166.269L194.369 165.942C194.437 165.717 194.512 165.491 194.595 165.266L193.467 165.491L193.086 165.899C192.845 166.149 192.582 166.376 192.301 166.578C192.017 166.75 191.73 166.915 191.441 167.075L191.126 167.253L190.14 167.803L189.468 168.182L187.828 169.1L187.151 168.875L186.023 166.845L186.249 166.168L189.619 164.169L190.654 163.554L191.232 163.211C192.122 162.684 193.018 162.166 193.918 161.656C194.031 161.481 194.031 161.481 194.144 161.205C194.173 160.844 194.173 160.844 194.173 160.405V159.335L194.178 158.74V157.093L194.182 155.302L194.189 152.162L194.196 147.493C194.208 142.284 194.217 137.076 194.223 131.867V131.624L194.227 129.418L194.236 123.936V123.684L194.259 111.539L194.263 107.321V107.059L194.286 94.9074V94.1178L194.295 88.8913L194.313 78.4902V77.9939L194.369 45.0356L195.132 45.6875L195.348 45.8724C195.828 46.2785 196.29 46.7033 196.736 47.1469L196.934 47.3454L197.572 47.9838L198.039 48.4485L200.611 51.02L205.371 55.7796C207.102 57.5068 208.831 59.2362 210.559 60.9677C211.4 61.8091 212.205 62.6686 212.984 63.5686C213.527 64.1979 214.098 64.7935 214.691 65.3799L215.668 66.3499L216.721 67.3988L218.957 69.623L222.246 72.8938C224.303 74.9329 224.303 74.9329 225.133 75.9119C226.229 77.1977 227.456 78.3706 228.652 79.5617L229.707 80.6106C231.557 82.4572 233.409 84.3016 235.263 86.1439L236.308 87.1815C238.773 89.629 238.773 89.629 239.57 90.5741C240.785 92.011 242.166 93.308 243.501 94.6344L244.724 95.8525L247.83 98.9474L252.398 103.499C255.321 106.405 255.321 106.405 256.311 107.573C257.065 108.46 257.9 109.267 258.725 110.086L259.643 110.997L261.59 112.933L264.743 116.068L265.303 116.623L265.546 116.865C266.081 117.397 266.577 117.956 267.071 118.527C267.892 119.474 268.763 120.361 269.654 121.245L271.242 122.826L272.954 124.534C275.473 127.05 277.994 129.563 280.518 132.075L282.216 133.767L283.276 134.825L283.764 135.31C284.639 136.173 285.48 137.07 286.286 137.998C286.9 138.699 287.542 139.376 288.21 140.026L288.589 140.403L289.396 141.206L290.677 142.483L293.396 145.19L297.395 149.173C299.917 151.677 299.917 151.677 300.914 152.855C301.902 154.005 303.009 155.052 304.083 156.119L305.08 157.111L307.607 159.626L311.322 163.326C313.681 165.665 313.681 165.665 314.712 166.876C315.45 167.738 316.26 168.53 317.065 169.328L317.938 170.194L319.788 172.033L322.785 175.01C323.57 175.776 324.323 176.573 325.041 177.401C326.119 178.66 327.315 179.811 328.492 180.977L329.507 181.99L332.081 184.552L335.869 188.321C338.284 190.721 338.284 190.721 339.32 191.931C340.064 192.806 340.881 193.607 341.695 194.412L342.205 194.922L343.527 196.239L344.885 197.592C345.766 198.472 346.649 199.351 347.533 200.229V200.455H325.878L326.104 360.16H360.616L361.293 360.386V382.943L361.067 383.168H7.36993L7.14435 382.943V360.611L8.72336 360.16C9.07007 360.121 9.41885 360.103 9.76776 360.106H10.0497C10.355 360.104 10.6588 360.105 10.961 360.108H11.6152C12.2017 360.108 12.7859 360.11 13.3679 360.115L14.4529 360.119C18.8621 360.134 23.2683 360.223 27.6714 360.386V359.483L27.288 359.465C26.4134 359.415 25.5444 359.295 24.6894 359.104C23.6285 358.846 22.5904 358.502 21.5855 358.076C20.4199 357.574 19.2993 356.973 18.2357 356.28C17.3592 355.667 16.5179 355.004 15.7161 354.295L15.4274 354.045C14.7065 353.404 14.0395 352.704 13.4333 351.954C12.6729 350.986 11.9946 349.957 11.4054 348.877C10.6752 347.52 10.0566 346.105 9.55572 344.647C9.11562 343.238 8.78975 341.794 8.58125 340.332C8.35036 338.391 8.24338 336.438 8.26094 334.483V334.221C8.26319 331.122 8.3241 328.023 8.37373 324.923L8.41433 322.275L8.49779 316.85L6.91878 316.625L6.08191 316.029L5.79092 315.722C5.66234 315.508 5.66234 315.508 5.54279 315.249C5.42549 314.942 5.42549 314.942 5.33978 314.594C5.31045 314.008 5.35557 313.433 5.40519 312.849L5.44129 312.339C5.49018 311.65 5.54432 310.962 5.6037 310.275C5.67889 309.318 5.75784 308.363 5.84055 307.408L6.04356 304.999C6.14432 303.781 6.24733 302.562 6.35259 301.344C6.98194 294.054 6.98194 294.054 6.9842 291.261V290.979C6.98721 290.429 6.9654 289.879 6.91878 289.33C6.83306 288.85 6.72253 288.383 6.56689 287.921C6.32324 287.372 6.03346 286.845 5.70069 286.346C5.31954 285.805 4.89722 285.295 4.43749 284.819C4.22394 284.611 4.00815 284.406 3.7901 284.203C2.14342 282.658 2.14342 282.658 1.58851 281.925C1.20408 281.367 0.866813 280.779 0.580199 280.165C0.41245 279.771 0.269315 279.366 0.151613 278.954C0.0726629 278.541 0.0252931 278.142 0.00048015 277.722C-0.0040313 277.192 0.023036 276.68 0.0907077 276.155C0.162891 275.719 0.26515 275.289 0.397486 274.867C0.538635 274.496 0.707539 274.136 0.902766 273.791C1.1505 273.369 1.42711 272.965 1.73062 272.582C2.00812 272.276 2.30986 271.993 2.63291 271.736C3.11592 271.398 3.6268 271.102 4.16003 270.851C5.53828 270.245 6.99548 269.9 8.45042 269.543L8.73915 269.473C14.9243 267.962 14.9243 267.962 17.7643 266.742C20.7012 265.445 23.4216 263.701 26.1488 262.018C27.0135 261.487 27.8805 260.958 28.7497 260.43L28.9459 260.313L29.7377 259.832C32.2372 258.32 34.7321 256.801 37.2222 255.273L38.2959 254.615L38.9117 254.238L39.1666 254.08C39.4012 253.916 39.4012 253.916 39.6583 253.67L39.8523 253.464L39.8027 253.261C39.7147 252.855 39.6358 252.458 39.6065 252.046C39.5996 251.74 39.5973 251.435 39.5997 251.13V248.786L39.6019 246.995L39.6065 244.405C39.606 241.646 39.609 238.886 39.6155 236.127V233.878L39.6268 224.14H21.3554C22.9119 222.326 22.9119 222.326 23.7171 221.526L24.9172 220.33L25.5871 219.658L29.1963 216.053L37.7929 207.463L40.1095 205.151L40.3418 204.917L45.8548 199.413L46.0984 199.167L50.0076 195.262L53.6709 191.603L53.9145 191.36L59.4162 185.865L59.6486 185.63L61.9607 183.323C65.5299 179.752 69.1014 176.185 72.6754 172.619L74.9266 170.37C75.9552 169.344 76.9748 168.318 77.9086 167.206C78.2967 166.738 78.7347 166.315 79.2147 165.942C79.777 165.498 80.2871 164.991 80.735 164.431C81.5516 163.484 82.4156 162.595 83.2998 161.713L83.7758 161.239L84.7615 160.253L86.9992 158.013L88.3053 156.71C88.4677 156.549 88.6331 156.393 88.8015 156.243L89.2527 156.017L89.4782 154.889H88.1248L87.9443 154.337L87.7007 153.606L87.5834 153.245L87.4639 152.884L87.3556 152.559C87.1751 152.052 86.9721 151.553 86.7714 151.055L91.1836 149.331C93.4618 148.44 95.7401 147.572 98.05 146.769L98.2756 145.866L98.0613 145.907C91.4294 147.136 91.4294 147.136 88.1248 147.445L88.0481 147.215L87.5834 145.801L87.4639 145.44L87.3556 145.115C87.1751 144.608 86.9721 144.109 86.7714 143.611C88.6316 142.835 90.4926 142.062 92.3543 141.292L93.2024 140.938C94.8912 140.238 96.5823 139.55 98.2756 138.874L98.5011 138.197L98.147 138.258C95.7241 138.669 93.3007 139.078 90.8768 139.483L89.9993 139.632L89.7399 139.677C89.3293 139.744 88.9323 139.785 88.515 139.785L88.1248 139.776L88.0481 139.546L87.5834 138.132L87.4639 137.771L87.3556 137.446C87.1751 136.938 86.9721 136.44 86.7714 135.941C88.6165 134.949 90.5384 134.175 92.4829 133.404C93.2798 133.09 94.0753 132.773 94.8694 132.452L95.3612 132.253C96.3848 131.838 97.4335 131.488 98.5011 131.204V130.302L98.271 130.354C96.1223 130.831 93.9569 131.23 91.7791 131.549L90.5384 131.739L88.1248 132.106L88.0481 131.856L87.703 130.71L87.5834 130.315C87.3526 129.545 87.0815 128.788 86.7714 128.046C88.5872 127.182 90.4392 126.445 92.325 125.745L94.231 125.028L94.6371 124.875C95.78 124.445 96.9176 123.998 98.05 123.535L98.2756 122.858L97.9394 122.91C95.8384 123.233 93.7368 123.554 91.6347 123.871L91.0437 123.961C89.3068 124.23 89.3068 124.23 88.5579 124.232L88.1248 124.211L88.0481 123.981L87.5834 122.567L87.4639 122.206L87.3556 121.881C87.1751 121.374 86.9721 120.875 86.7714 120.377C88.7654 119.533 90.773 118.73 92.7874 117.936L94.0393 117.442L95.0228 117.054L95.483 116.874C96.4033 116.507 97.3342 116.171 98.2756 115.865L98.5011 115.189L98.1763 115.24L93.5656 115.962L91.4768 116.292C90.6151 116.427 89.7737 116.56 88.8985 116.562L88.3504 116.542L88.1248 116.316L87.8992 113.384L82.0343 113.158C82.0343 111.354 82.0343 111.354 82.1336 110.722C82.1832 110.533 82.2344 110.344 82.287 110.156L82.3772 109.84C82.5808 109.184 82.8358 108.546 83.1397 107.93C83.4756 107.288 83.8602 106.672 84.2901 106.089C84.8387 105.391 85.4421 104.738 86.0946 104.136C86.7094 103.607 87.3682 103.133 88.0639 102.717C88.5982 102.414 89.1512 102.146 89.7196 101.914C90.0083 101.803 90.3061 101.733 90.6061 101.654L92.8618 101.429V107.294H98.05V101.429L100.306 101.654C101.007 101.904 101.688 102.208 102.343 102.563C103.131 102.96 103.883 103.424 104.592 103.951C105.159 104.42 105.687 104.934 106.171 105.489C106.698 106.106 107.173 106.767 107.592 107.463C107.892 107.99 108.155 108.538 108.379 109.103C108.567 109.654 108.71 110.22 108.808 110.794C108.922 111.504 109.02 112.217 109.103 112.933L108.877 113.158H102.787L103.464 115.189C103.619 115.715 103.769 116.241 103.915 116.768L103.013 117.219C102.889 120.44 102.889 120.44 103.013 121.73C103.08 122.145 103.198 122.538 103.335 122.935C103.51 123.368 103.703 123.793 103.915 124.211L102.787 124.663C102.799 125.269 102.814 125.874 102.832 126.478C102.84 126.683 102.845 126.888 102.848 127.094C102.859 127.692 102.879 128.288 102.954 128.881C103.013 129.174 103.013 129.174 103.11 129.467C103.293 129.914 103.498 130.351 103.723 130.778C103.834 130.997 103.834 130.997 103.915 131.204C103.942 131.599 103.942 131.599 103.915 131.881L103.013 132.332C102.99 132.974 102.973 133.616 102.963 134.256L102.945 134.91C102.914 135.532 102.92 136.155 102.963 136.776C103.013 137.069 103.013 137.069 103.105 137.353C103.33 137.883 103.601 138.391 103.915 138.874L103.689 139.776L103.013 140.227L102.787 141.806C103.252 141.693 103.252 141.693 103.57 141.565L103.915 141.355C104.163 141.116 104.375 140.852 104.592 140.588C105.593 139.406 106.692 138.323 107.79 137.231L108.706 136.316L112.586 132.445L116.321 128.718L116.547 128.493L118.351 126.693L119.93 125.118L120.156 124.893L127.735 117.331L128.638 116.431C129.811 115.286 130.937 114.093 132.014 112.856C132.414 112.389 132.835 111.952 133.269 111.518L133.51 111.273L134.834 109.946C135.213 109.563 135.593 109.182 135.973 108.805L137.426 107.343L139.091 105.674L139.839 104.925L140.058 104.699C140.257 104.501 140.465 104.313 140.683 104.136C140.979 103.962 141.27 103.824 141.585 103.684C141.629 97.2616 141.582 90.8395 141.446 84.4182L141.441 84.1656C141.37 80.7894 141.295 77.4134 141.215 74.0374L141.209 73.7757L141.186 72.7246L141.089 68.344L141.067 67.374C141.021 65.2762 140.973 63.1784 140.92 61.0805L140.897 60.0858C140.854 58.2713 140.807 56.4569 140.755 54.6427L140.726 53.596L140.717 53.2554L140.683 52.9306C140.615 52.705 140.54 52.4795 140.458 52.2539C138.716 51.1531 136.984 50.1064 135.075 49.3147C134.197 48.9643 133.308 48.647 132.407 48.3628L132.084 48.259C130.913 47.911 129.715 47.6628 128.502 47.5169C127.55 47.4402 126.596 47.4402 125.64 47.4469H125.254C123.858 47.456 122.468 47.4763 121.088 47.7018C119.872 47.9324 118.678 48.2667 117.519 48.7011C116.34 49.1852 115.197 49.7513 114.097 50.3952L113.745 50.5937L113.436 50.7741L113.163 50.9005H112.712L112.261 52.0283C108.456 52.0599 104.652 52.0825 100.847 52.096L99.4936 52.1028H99.223C97.7778 52.1103 96.3311 52.12 94.8829 52.1321C93.3942 52.1471 91.9069 52.1546 90.4211 52.1546C89.5053 52.1561 88.5895 52.1629 87.6737 52.1749C87.0421 52.1825 86.412 52.1847 85.7834 52.1817C85.4194 52.1802 85.057 52.1832 84.6961 52.1907C83.9269 52.202 83.1645 52.1997 82.3998 52.105C82.0343 52.0283 82.0343 52.0283 81.6531 51.902C80.9399 51.6094 80.2512 51.2602 79.5937 50.8576C79.3494 50.6921 79.1158 50.5113 78.8944 50.3162C78.7117 50.1355 78.5407 49.9434 78.3823 49.741C78.089 49.3154 77.831 48.8665 77.6109 48.3989C77.3851 47.8964 77.2047 47.3747 77.0718 46.8402C76.9229 45.7619 76.9409 44.6701 76.9477 43.5851L76.9409 42.2858C76.9349 41.4422 76.9334 40.5971 76.9364 39.7504L76.9342 37.6864V37.3887L76.9319 36.7887C76.9259 34.9164 76.9259 33.0457 76.9319 31.1764C76.9319 29.4711 76.9274 27.7658 76.9184 26.0604C76.9093 24.301 76.9056 22.543 76.9071 20.7866C76.9071 19.8016 76.9048 18.8166 76.9003 17.8316C76.8958 16.9954 76.8958 16.1586 76.9003 15.3209V14.0419C76.8868 13.1509 76.8935 12.2622 76.9951 11.3757C77.0718 10.9742 77.0718 10.9742 77.1981 10.5726C77.4431 9.9668 77.7303 9.37887 78.0575 8.81318C78.2294 8.53682 78.4217 8.27367 78.6327 8.02593C78.8789 7.7644 79.1444 7.52161 79.4267 7.29959C79.9255 6.94186 80.4537 6.62718 81.0057 6.35895C81.3915 6.22361 81.7682 6.13789 82.1697 6.05894C82.6975 5.97999 83.2186 5.98225 83.7509 5.9845H86.2255L88.1203 5.98676L90.8542 5.99127C93.7701 5.99002 96.686 5.99228 99.6019 5.99804H99.8703L101.203 6.00029L112.261 6.01157L112.374 6.20556L112.897 7.08529L113.078 7.39207C113.426 7.9937 113.818 8.56895 114.251 9.11319C114.602 9.50695 114.985 9.87203 115.394 10.205C115.805 10.5143 116.238 10.794 116.689 11.0418C117.519 11.4569 118.381 11.8039 119.267 12.0795C120.642 12.4771 122.048 12.7593 123.47 12.9231C124.566 13.0517 125.658 13.1103 126.763 13.0697C128.046 12.984 129.313 12.7923 130.564 12.4945C131.541 12.254 132.497 11.9341 133.422 11.5381C134.929 10.8524 136.336 9.97713 137.751 9.12447C140.169 7.6605 142.596 6.26196 145.233 5.23109C146.814 4.64175 148.417 4.11575 150.04 3.65434C153.978 2.46783 157.946 1.74374 162.025 1.25651C165.428 0.859499 168.848 0.615882 172.268 0.399332C172.659 0.375271 173.049 0.349706 173.438 0.322637C180.576 -0.162344 187.929 -0.123996 195.046 0.597835Z" fill="#073760"/>
<path d="M143.39 200.906H143.841C143.931 201.208 144.008 201.497 144.067 201.808C144.11 202.302 144.121 202.796 144.134 203.29C144.26 207.392 144.363 211.495 144.443 215.598L144.45 215.891L144.475 217.05C144.502 218.283 144.532 219.517 144.565 220.75C144.756 226.883 144.406 233.021 143.519 239.093C143.4 239.887 143.278 240.68 143.153 241.473L143.095 241.836C142.77 243.893 142.77 243.893 142.461 244.825C142.396 244.999 142.33 245.172 142.262 245.344L140.897 246.05L140.674 246.163L140.458 246.246H140.006L139.817 246.627C139.539 247.178 139.253 247.724 138.96 248.267C136.537 252.815 136.537 252.815 135.921 254.61C135.469 256.037 135.137 257.492 134.927 258.973C134.764 260.245 134.771 261.526 134.757 262.808L134.746 263.658L134.724 265.751L134.692 268.278L134.579 277.72C134.439 289.145 134.318 300.571 134.081 324.682L134.024 330.473L134.015 331.47C133.922 340.883 133.814 350.297 133.69 359.709L133.239 360.16H39.6268L39.4012 355.649L36.6222 355.671C36.0507 355.671 35.48 355.675 34.9101 355.682C32.916 355.705 30.9468 355.682 28.964 355.446L28.7294 355.419C27.5316 355.28 26.3482 355.038 25.1925 354.694C24.109 354.339 23.0559 353.897 22.0435 353.373C21.2953 352.971 20.5802 352.511 19.905 351.997C19.3945 351.579 18.9002 351.142 18.423 350.686L18.1523 350.433C17.61 349.917 17.1057 349.362 16.6433 348.773C15.9044 347.753 15.2532 346.673 14.6966 345.543C14.2978 344.709 13.9644 343.846 13.6995 342.96C13.3486 341.679 13.1072 340.371 12.9777 339.049L12.9461 338.769C12.6619 335.889 12.7747 332.99 12.8379 330.1C12.8559 329.323 12.8709 328.544 12.883 327.763C12.9439 324.274 13.0499 320.786 13.2349 317.301L13.5033 317.274C14.4033 317.184 15.2921 317.089 16.1673 316.85C16.4696 316.726 16.4696 316.726 16.7312 316.582C16.9687 316.428 17.1962 316.259 17.4125 316.076C17.7203 315.79 18.0033 315.477 18.2584 315.143C18.3817 314.949 18.4945 314.747 18.5967 314.538C18.7601 314.116 18.8869 313.68 18.9757 313.237C19.2035 312.115 19.3817 310.988 19.5509 309.857C19.9033 309.528 20.2804 309.227 20.6787 308.955C21.378 308.527 22.1044 308.139 22.8262 307.744C23.4563 307.398 24.0849 307.05 24.712 306.699L24.9082 306.589C27.0985 305.371 29.2482 304.078 31.3979 302.79C32.084 302.38 32.7727 301.974 33.4642 301.572C34.8176 300.783 36.1214 299.971 37.335 298.974C37.9852 298.431 38.6 297.847 39.1757 297.225H39.6268L39.7035 297.009C39.8178 296.701 39.9427 296.397 40.078 296.098C40.2193 295.875 40.3697 295.659 40.5291 295.45C40.9343 294.904 41.2963 294.327 41.6119 293.725C42.0494 292.83 42.4167 291.903 42.7104 290.952C42.9675 290.034 43.139 289.096 43.3059 288.16L43.3623 287.853C43.8134 285.297 43.9646 282.732 43.9691 280.138V279.746C43.9691 276.971 43.7142 274.242 43.236 271.51C43.1026 270.781 42.9462 270.057 42.7668 269.338C42.6827 269.013 42.6134 268.684 42.5593 268.352C42.5382 267.826 42.5382 267.3 42.5593 266.773C44.0322 265.548 45.609 264.495 47.2106 263.448C49.1189 262.199 49.1189 262.199 49.7776 261.585L50.0347 261.265C50.143 261.051 50.2453 260.835 50.3415 260.617L50.4543 260.232C50.5039 259.771 50.5107 259.345 50.4994 258.885C50.4588 258.348 50.3438 257.825 50.2287 257.299C51.5596 256.32 52.9333 255.431 54.3454 254.579C55.8973 253.637 57.4388 252.679 58.9696 251.703L59.2854 251.5L60.8735 250.485L63.6796 248.698L65.2315 247.712L65.5406 247.514L67.3903 246.336C70.3016 244.478 73.2243 242.635 76.1583 240.81L79.623 238.647L79.9659 238.432C81.5449 237.444 83.1239 236.452 84.7029 235.455C86.8842 234.072 89.0835 232.714 91.2829 231.358H92.1852L92.6363 230.456C94.9623 228.982 97.2933 227.516 99.629 226.057C102.916 224.003 106.195 221.933 109.464 219.847C110.791 219.001 112.123 218.162 113.459 217.33C114.721 216.545 115.973 215.748 117.217 214.939C118.734 213.954 120.255 212.975 121.778 212.002L122.139 211.77C123.949 210.613 125.761 209.459 127.573 208.307C128.836 207.504 130.097 206.695 131.356 205.88L132.736 204.987L134.022 204.15L135.479 203.202L136.036 202.841C137.214 202.063 137.214 202.063 137.751 201.808C138.175 201.684 138.175 201.684 138.552 201.619C138.737 201.601 138.921 201.589 139.104 201.583L139.309 201.693L139.555 201.808C139.867 201.862 139.867 201.862 140.232 201.878C140.449 201.88 140.665 201.872 140.882 201.856C141.177 201.799 141.443 201.711 141.723 201.608C142.207 201.412 142.686 201.206 143.158 200.99L143.39 200.906ZM98.05 100.978C99.0426 101.144 100.022 101.357 100.982 101.654C101.952 102.023 102.888 102.474 103.78 103.003C104.34 103.361 104.871 103.763 105.368 104.205C105.985 104.788 106.553 105.42 107.066 106.096C107.52 106.72 107.918 107.383 108.257 108.076C108.687 109.037 108.994 110.048 109.173 111.085L109.234 111.39L109.284 111.683L109.329 111.936V112.256L109.103 113.384H103.013L104.14 116.091L103.915 117.219L103.238 117.444C103.114 120.341 103.114 120.341 103.238 121.505C103.317 121.876 103.425 122.242 103.561 122.596C103.735 122.993 103.929 123.382 104.14 123.76L103.915 124.663L103.013 124.888C103.069 127.834 103.069 127.834 103.238 128.949C103.328 129.287 103.434 129.587 103.577 129.903C103.697 130.135 103.82 130.366 103.947 130.595L104.14 130.979C104.199 131.349 104.199 131.349 104.197 131.669L104.14 132.107L103.238 132.558C103.216 133.135 103.199 133.713 103.189 134.29L103.171 134.877C103.139 135.442 103.145 136.008 103.189 136.573C103.238 136.844 103.238 136.844 103.328 137.107C103.507 137.506 103.711 137.893 103.937 138.267L104.14 138.648L104.201 139.009C104.197 139.325 104.197 139.325 104.14 139.776L103.238 140.453V141.355L103.446 141.147L105.485 139.111L105.977 138.619L106.504 138.093L111.889 132.713L112.11 132.492L114.379 130.225L115.543 129.061L115.778 128.829L125.766 118.852L128.335 116.285C129.594 115.05 130.803 113.764 131.958 112.432C132.306 112.04 132.667 111.66 133.041 111.293L133.28 111.047L134.051 110.271L134.322 109.998L135.734 108.577C136.22 108.094 136.703 107.608 137.182 107.118L138.84 105.448C139.088 105.196 139.338 104.946 139.589 104.699L139.806 104.474C140.016 104.271 140.219 104.084 140.458 103.91C140.825 103.73 141.198 103.587 141.585 103.459C141.668 103.683 141.743 103.908 141.811 104.136C141.834 104.391 141.849 104.649 141.856 104.909L141.861 105.137L141.876 105.897L141.89 106.448L141.922 107.964L141.96 109.606L142.023 112.47L142.116 116.677L142.273 123.643L142.49 133.442L142.567 136.844L142.585 137.692L142.718 143.617C142.853 149.834 142.996 156.051 143.146 162.268L143.189 164.106C143.325 169.867 143.325 169.867 143.392 172.522L143.507 177.368L143.516 177.735C143.607 181.55 143.654 185.36 143.616 189.176C143.33 189.492 143.029 189.793 142.713 190.079C142.32 190.367 141.916 190.643 141.504 190.904L140.907 191.297L139.425 192.262L138.166 193.085L137.579 193.467L137.218 193.704L136.903 193.909L136.623 194.139C136.366 194.486 136.366 194.486 136.172 194.816C136.1 195.12 136.1 195.12 136.079 195.425L136.052 195.756L136.03 196.099L136.005 196.449C135.984 196.73 135.964 197.013 135.946 197.297C134.503 198.412 132.986 199.429 131.408 200.342C129.653 201.381 127.918 202.452 126.204 203.557L125.85 203.784L124.408 204.714L121.837 206.363L121.469 206.597L120.743 207.062C117.887 208.889 117.887 208.889 116.66 209.685L116.425 209.839L115.967 210.134C114.275 211.235 112.568 212.306 110.856 213.373C109.181 214.417 107.511 215.468 105.848 216.527L105.537 216.723C104.469 217.4 103.407 218.084 102.349 218.776L102.083 218.95C101.674 219.214 101.266 219.481 100.858 219.75C100.129 220.235 99.3677 220.669 98.5801 221.052C98.1218 221.303 97.6849 221.591 97.2741 221.914C96.3669 222.557 95.4313 223.159 94.4702 223.718C93.1295 224.514 91.808 225.341 90.5069 226.199C88.8332 227.294 87.1466 228.37 85.4473 229.425C83.6879 230.52 81.9344 231.625 80.187 232.741C78.6019 233.753 77.0094 234.753 75.4094 235.741L75.1161 235.922L74.5296 236.285L74.2319 236.47L73.9341 236.652C72.725 237.397 71.5197 238.147 70.3182 238.901L69.9753 239.116C68.2354 240.206 66.4985 241.304 64.7646 242.409C63.2503 243.378 61.7276 244.332 60.1968 245.274C58.7184 246.182 57.252 247.109 55.7981 248.055C54.0237 249.204 52.237 250.335 50.4385 251.446L50.0956 251.66L49.4527 252.059C48.955 252.367 48.4617 252.685 47.973 253.013L46.8451 252.788L46.6196 252.111C46.252 251.94 45.8755 251.79 45.4917 251.66C45.203 251.601 44.9278 251.57 44.6345 251.552C44.2071 251.538 43.7793 251.55 43.3533 251.588C43.0104 251.66 43.0104 251.66 42.654 251.795C41.9176 252.15 41.2075 252.557 40.5291 253.013L39.6268 252.788L39.4012 252.562V224.366H20.9043L21.3555 223.463C21.5585 223.206 21.5585 223.206 21.7638 222.999L22.0051 222.755L22.269 222.493L22.5533 222.209L23.3315 221.433L24.1796 220.587L25.6639 219.103L27.8745 216.899L31.5897 213.188L35.2733 209.512L35.5056 209.279L36.6673 208.118L45.4127 199.383L45.6631 199.135L46.9128 197.888L47.1632 197.64L52.9153 191.897L53.1634 191.649L58.7869 186.032L59.026 185.793L61.1554 183.666C64.8861 179.936 68.6194 176.209 72.3551 172.484L74.6604 170.183C75.7048 169.145 76.738 168.108 77.6854 166.978C78.0729 166.511 78.5101 166.088 78.9892 165.717C79.5515 165.272 80.0616 164.765 80.5095 164.205C81.3261 163.258 82.19 162.369 83.0743 161.487L83.5502 161.014L84.536 160.028L86.7737 157.788L87.2406 157.323L87.888 156.676L88.0797 156.484C88.2422 156.323 88.4076 156.168 88.576 156.017C88.8467 155.864 88.8467 155.864 89.0271 155.792L89.2527 155.115H87.8993L87.7188 154.555L87.3579 153.45C87.0489 152.516 87.0489 152.516 86.8662 152.142L86.7421 151.912L86.5459 151.506C86.5346 151.143 86.5346 151.143 86.5459 150.829L90.958 149.106C93.2363 148.215 95.5146 147.346 97.8245 146.543L98.05 146.092L97.8312 146.146C96.025 146.59 94.1978 146.943 92.3566 147.206C91.693 147.3 91.0298 147.397 90.367 147.497L90.0084 147.551C89.3001 147.651 88.6144 147.694 87.8993 147.671L87.8226 147.436L87.3579 146.006C87.1774 145.465 86.997 144.937 86.7421 144.425L86.5459 144.062L86.7714 143.16L86.9767 143.078L89.6204 142.045L89.8347 141.962C92.5837 140.882 95.3221 139.777 98.05 138.648L97.7252 138.7L93.1145 139.422L91.0257 139.751C90.164 139.887 89.3204 140.02 88.4474 140.022L87.8993 140.002L87.8158 139.744L87.4775 138.705L87.3579 138.337C87.1774 137.795 86.997 137.268 86.7421 136.756L86.5459 136.392L86.7714 135.49L89.7941 134.227L91.2017 133.638C92.9899 132.88 94.7879 132.144 96.5951 131.432L96.956 131.29L97.2876 131.164L97.5718 131.053L97.8245 130.979H98.2756V130.528L98.0839 130.579C96.1349 131.109 94.1724 131.464 92.1806 131.775C91.5523 131.872 90.9245 131.972 90.2971 132.075L89.2527 132.24L88.9053 132.294C88.567 132.332 88.2399 132.339 87.8993 132.332L87.8226 132.077L87.4775 130.922L87.3579 130.521C87.2008 129.948 86.9948 129.389 86.7421 128.852L86.5459 128.497L86.7714 127.595L87.0895 127.473L91.6393 125.725L93.1371 125.15L93.701 124.933C95.08 124.402 96.4545 123.861 97.8245 123.309L96.1891 123.492L95.9342 123.521C94.883 123.642 93.8333 123.781 92.7852 123.941L92.4852 123.986L91.028 124.218C90.2116 124.364 89.3848 124.444 88.5557 124.457L87.8993 124.437L87.8226 124.202L87.3579 122.772C87.1774 122.231 86.997 121.703 86.7421 121.191L86.5459 120.828L86.7714 119.926L89.5843 118.85L90.8926 118.349C93.2746 117.436 95.6604 116.533 98.05 115.64L97.6688 115.694L92.7852 116.393C89.8054 116.824 89.8054 116.824 88.4001 116.783L88.1249 116.768L87.8993 116.542L87.6737 113.61L81.8088 113.384C81.8088 111.128 81.8088 111.128 81.9081 110.452C81.9562 110.267 82.0073 110.083 82.0615 109.901L82.1517 109.594C82.3588 108.946 82.6136 108.314 82.9141 107.704C83.2494 107.062 83.634 106.446 84.0646 105.863C84.6132 105.165 85.2166 104.512 85.8691 103.91C86.4817 103.382 87.1383 102.907 87.8316 102.491C88.6454 102.056 89.4989 101.701 90.3806 101.429L90.7844 101.293L91.2829 101.203H93.0874V107.068H97.8245V101.203L98.05 100.978Z" fill="#1DCAD5"/>
<path d="M237.003 251.66L237.905 252.111L238.23 252.93L238.32 253.156C238.489 253.588 238.619 254.034 238.71 254.489C238.864 255.497 238.857 256.519 238.882 257.536C238.933 259.474 239.039 261.389 239.328 263.306L239.364 263.566C239.432 264.039 239.509 264.509 239.635 264.973C239.745 265.283 239.883 265.583 240.046 265.869C240.229 266.174 240.418 266.476 240.612 266.773L242.191 266.999C242.213 265.878 242.202 264.777 242.087 263.66C242.016 263.046 241.975 262.429 241.965 261.811C242.054 260.974 242.204 260.144 242.416 259.329L243.319 258.653C243.563 258.939 243.789 259.24 243.995 259.555C244.09 259.792 244.09 259.792 244.153 260.029C244.188 260.199 244.22 260.372 244.25 260.548L244.304 260.836C244.512 262.048 244.566 263.275 244.636 264.5C244.85 268.312 244.85 268.312 245.265 270.101C245.36 270.496 245.463 270.891 245.574 271.285L246.477 272.187L248.281 271.961C248.498 271.285 248.692 270.64 248.8 269.938C248.82 269.783 248.838 269.627 248.854 269.469L248.883 269.207C249.008 267.967 249.032 266.715 249.064 265.467L249.098 264.493L249.105 264.197C249.116 263.92 249.134 263.66 249.183 263.39C249.311 263.078 249.462 262.777 249.635 262.487L250.537 262.713L250.988 263.39L250.997 263.789C251.012 264.29 251.029 264.79 251.047 265.289L251.067 265.932C251.085 266.667 251.112 267.398 251.214 268.127C251.376 268.894 251.597 269.654 251.89 270.382C252.093 270.789 252.305 271.138 252.567 271.51L254.146 271.736L254.584 270.565L254.708 270.236L254.83 269.909L254.94 269.611C255.086 269.125 255.198 268.629 255.274 268.127C255.303 267.73 255.308 267.335 255.31 266.938L255.312 266.595L255.319 265.862L255.33 264.698C255.345 263.594 255.357 262.49 255.364 261.387C255.369 260.71 255.376 260.033 255.387 259.357C255.391 259.101 255.393 258.845 255.393 258.59C255.393 257.782 255.4 256.974 255.499 256.171C255.635 255.478 255.827 254.801 256.077 254.139C256.174 253.918 256.284 253.724 256.418 253.523C256.643 253.225 256.643 253.225 256.862 252.977C257.079 252.788 257.079 252.788 257.288 252.648L257.53 252.562C257.868 252.54 257.868 252.54 258.236 252.549L258.603 252.553L258.883 252.562C259.365 252.899 259.818 253.276 260.237 253.69C260.508 254.014 260.753 254.359 260.967 254.723C261.268 255.268 261.524 255.836 261.734 256.422C262.046 257.317 262.294 258.226 262.452 259.165C262.785 261.33 262.864 263.503 262.948 265.691C263.022 267.524 263.131 269.322 263.489 271.127L263.568 271.54C263.676 272.036 263.794 272.507 263.981 272.979C264.183 273.425 264.41 273.859 264.662 274.278C264.804 274.477 264.804 274.477 264.974 274.668C265.265 274.916 265.56 275.129 265.876 275.345H267.455C267.949 274.95 267.949 274.95 268.258 274.639C268.42 274.447 268.42 274.447 268.583 274.217C268.808 273.801 269.011 273.372 269.189 272.934L269.327 272.613C269.598 271.937 269.796 271.246 269.95 270.534C270.317 268.684 270.387 266.769 270.523 264.892C270.726 262.084 270.726 262.084 270.92 261.222C271.078 260.651 271.276 260.095 271.515 259.555L272.417 259.329C272.823 259.916 273.209 260.507 273.545 261.134C273.816 261.725 274.055 262.325 274.29 262.93L274.423 263.268L274.536 263.57L274.673 263.841C274.914 264.103 274.914 264.103 275.124 264.292L276.252 264.066C276.607 263.348 276.899 262.6 277.125 261.831C277.292 261.222 277.452 260.614 277.606 260.006L278.282 259.781L279.41 263.164H280.087C280.522 261.463 280.522 261.463 280.588 260.629C280.615 260.123 280.624 259.616 280.633 259.111L280.644 258.558C280.656 258.081 280.666 257.604 280.673 257.126L280.705 255.655L280.764 252.788L281.215 252.111L282.568 252.337C282.99 252.908 283.367 253.512 283.696 254.141C283.82 254.453 283.904 254.759 283.978 255.086C284.461 257.714 284.416 260.428 284.44 263.09L284.458 264.603L284.49 267.452L284.526 270.703L284.598 277.375H287.531C288.177 273.894 288.73 270.397 289.189 266.886L289.254 266.385L289.8 262.054L290.125 259.483L290.305 258.046C290.349 257.682 290.395 257.317 290.443 256.952L290.488 256.564C290.538 256.199 290.596 255.851 290.689 255.495C290.888 255.031 291.114 254.579 291.365 254.141L292.493 254.367C292.675 254.544 292.842 254.736 292.99 254.942L293.17 255.269C293.391 255.926 293.504 256.62 293.635 257.299L293.901 258.63C293.946 258.866 294.003 259.099 294.072 259.329C294.208 259.641 294.361 259.932 294.523 260.232L295.426 260.006C295.777 259.275 296.078 258.522 296.328 257.75C296.689 256.413 296.955 255.048 297.23 253.69L297.682 253.239L298.584 253.465C298.866 254.121 299.093 254.8 299.261 255.495C299.617 257.435 299.739 259.426 299.836 261.396L299.849 261.693C299.985 264.565 299.971 267.439 299.967 270.315V272.318C299.971 274.986 299.971 277.655 299.888 280.321C299.742 285.437 299.668 290.554 299.664 295.671C299.651 299.373 299.64 303.075 299.633 306.776V307.076L299.628 308.588C299.605 315.657 299.586 322.727 299.57 329.796L299.561 332.999L299.54 339.518V339.823L299.486 359.709C299.284 359.833 299.077 359.949 298.866 360.057L298.584 360.16C298.146 360.223 297.713 360.219 297.271 360.217H294.6L292.525 360.214L289.437 360.212L284.242 360.208L279.099 360.203H277.154C273.32 360.203 269.485 360.2 265.65 360.194L254.478 360.185H250.672L243.625 360.181H243.298L221.664 360.16L221.438 359.935V359.705L221.375 345.992L221.366 344.325V343.991L221.343 339.353C221.334 336.692 221.322 334.028 221.305 331.364V331.048C221.273 325.914 221.212 320.793 220.949 315.666C220.689 310.573 220.7 305.482 220.716 300.381L220.721 297.643C220.721 292.486 220.734 287.334 220.901 282.178C220.996 279.216 221.007 276.256 220.991 273.29C220.984 271.865 220.981 270.438 220.982 269.011V268.589C220.982 259.756 220.982 259.756 221.524 256.032C221.534 255.941 221.547 255.85 221.562 255.756C221.643 255.208 221.743 254.674 221.889 254.141C222.078 253.673 222.305 253.22 222.566 252.788L223.694 253.013C223.994 253.868 224.28 254.728 224.431 255.621C224.551 256.501 224.63 257.387 224.709 258.272C224.896 260.329 225.212 262.289 225.724 264.292H226.852C227.114 263.782 227.34 263.255 227.529 262.713C227.698 262.027 227.786 261.326 227.88 260.626L227.998 259.81C228.023 259.644 228.047 259.477 228.068 259.307C228.101 259.088 228.153 258.869 228.205 258.653C228.338 258.405 228.485 258.202 228.656 257.976H229.559C229.789 258.391 229.987 258.823 230.15 259.269C230.474 260.345 230.556 261.502 230.7 262.614L230.966 264.603C231.034 265.093 231.113 265.56 231.253 266.033C231.358 266.358 231.47 266.68 231.589 266.999L232.491 267.224C232.802 266.958 232.802 266.958 232.992 266.767L233.168 266.548C233.303 266.284 233.398 266.024 233.49 265.745L233.59 265.406L233.702 265.034C234.492 262.246 234.966 259.336 235.394 256.474C235.412 256.376 235.427 256.277 235.439 256.176C235.509 255.729 235.572 255.28 235.631 254.829C235.697 254.369 235.771 253.918 235.875 253.465C236.067 252.924 236.293 252.397 236.551 251.886L237.003 251.66ZM98.05 227.073H98.5012V267.224H104.14C104.611 267.967 105.015 268.751 105.345 269.566L105.699 270.423L105.947 271.025L107.132 273.895L107.77 275.442L107.892 275.731C108.317 276.753 108.73 277.781 109.128 278.814C109.199 279.01 109.265 279.207 109.329 279.405C109.374 279.732 109.396 280.037 109.387 280.366L109.372 280.646L109.362 280.948L109.329 281.661C109.058 282.132 108.756 282.584 108.426 283.015C107.977 283.511 107.472 283.951 106.974 284.397L106.59 284.747C105.948 285.339 105.278 285.901 104.583 286.43L104.366 286.624L104.224 286.847L104.14 287.075C104.118 287.469 104.114 287.864 104.129 288.259L104.14 288.879C104.411 289.353 104.702 289.804 105.043 290.233C105.512 290.74 106.026 291.203 106.538 291.665L107.267 292.335C107.786 292.819 108.307 293.301 108.83 293.779C109.487 294.361 110.106 294.985 110.682 295.647C111.269 296.416 111.805 297.221 112.329 298.035C112.487 298.353 112.487 298.353 112.608 298.757C112.667 299.008 112.712 299.247 112.733 299.502C112.74 299.772 112.744 300.043 112.744 300.314V300.629C112.748 300.975 112.75 301.321 112.748 301.667L112.751 302.421L112.757 304.491L112.764 306.492C112.776 309.209 112.785 311.927 112.791 314.644V314.899L112.796 316.178C112.818 322.139 112.838 328.099 112.854 334.059V334.334L112.863 337.062L112.938 359.935C112.748 360.047 112.748 360.047 112.487 360.16C112.211 360.187 112.211 360.187 111.9 360.187H108.302L106.13 360.185L102.992 360.181C99.6463 360.181 96.3003 360.178 92.9544 360.172H91.1159L78.4253 360.16L78.3125 359.998L78.1997 359.709C78.1789 359.379 78.1699 359.048 78.1726 358.717V358.405L78.1771 357.372V356.628L78.1816 354.573L78.1861 352.588L78.1997 347.264L78.2087 344.745L78.2358 335.577L78.238 335.036L78.2425 333.947V333.674C78.2531 330.756 78.2606 327.84 78.2651 324.924C78.2711 321.839 78.2801 318.755 78.2922 315.671L78.2944 314.656V314.403C78.3004 313.06 78.3042 311.719 78.3057 310.379C78.3057 309.031 78.3102 307.683 78.3192 306.334L78.3237 304.142C78.3237 303.474 78.3268 302.805 78.3328 302.134V301.412C78.326 299.948 78.326 299.948 78.4253 299.256C78.529 298.827 78.6734 298.421 78.8358 298.013C79.0033 297.628 79.204 297.258 79.4358 296.908L79.8193 296.436L80.0449 296.165C80.884 295.173 81.8066 294.255 82.7247 293.334L82.957 293.102C83.8029 292.256 84.6556 291.433 85.5849 290.682C85.7594 290.536 85.9293 290.386 86.0947 290.233C86.3428 289.901 86.3428 289.901 86.5323 289.585L86.7714 289.105V287.075C86.4851 286.688 86.1841 286.311 85.8691 285.947C85.5213 285.639 85.1592 285.348 84.7841 285.074C84.0623 284.51 83.363 283.942 82.7111 283.297L82.5216 283.112C82.3497 282.937 82.1871 282.755 82.0344 282.563C81.9021 282.356 81.7833 282.14 81.678 281.916C81.5833 281.661 81.5833 281.661 81.5359 281.408C81.5148 281.138 81.5066 280.867 81.5111 280.596L81.5133 280.299C81.5269 279.911 81.5562 279.536 81.6374 279.155C81.8021 278.573 82.0434 278.027 82.287 277.474L82.5216 276.92C82.6991 276.495 82.8796 276.073 83.063 275.652C83.4104 274.84 83.7548 274.025 84.0961 273.209L85.0661 270.904L85.1744 270.646L85.9932 268.716L86.2594 268.088L86.4105 267.727L86.5459 267.45L86.7714 267.224H92.4107V230.682C96.9222 227.749 96.9222 227.749 98.05 227.073ZM262.154 152.119C262.578 152.198 262.977 152.309 263.383 152.453C263.849 152.64 264.304 152.85 264.748 153.085L265.012 153.222C265.455 153.462 265.881 153.731 266.289 154.028C266.64 154.311 266.97 154.621 267.274 154.955C267.752 155.502 268.189 156.084 268.583 156.694C268.867 157.195 269.115 157.715 269.327 158.251C269.47 158.673 269.583 159.105 269.665 159.543C269.74 160.048 269.744 160.549 269.742 161.061L269.744 161.411V162.956C269.718 166.018 269.615 169.079 269.438 172.137L269.334 174.207L269.131 178.317L269.12 178.561L268.984 181.259C268.294 194.985 268.294 194.985 268.292 199.187V199.875C268.292 201.168 268.314 202.438 268.529 203.717C268.686 204.615 268.95 205.461 269.259 206.32L269.406 206.755C269.778 207.898 270.247 209.007 270.809 210.069C271.438 211.152 272.185 212.144 272.981 213.107C273.618 213.882 274.317 214.603 275.07 215.264C276.054 216.069 277.123 216.735 278.219 217.373C279.239 217.965 280.307 218.469 281.413 218.878C282.626 219.286 283.869 219.598 285.131 219.811C285.726 219.879 286.326 219.899 286.926 219.92C288.185 219.965 289.448 220.012 290.687 220.267C291.341 220.427 291.963 220.63 292.586 220.887C293.232 221.176 293.855 221.514 294.449 221.9C295.179 222.419 295.866 222.995 296.504 223.624C297.016 224.128 297.486 224.671 297.912 225.25C298.412 225.994 298.866 226.761 299.238 227.58C299.554 228.356 299.801 229.157 299.978 229.976C300.113 230.659 300.181 231.325 300.203 232.022C300.211 232.778 300.197 233.535 300.163 234.291L299.712 234.742H220.987L220.536 233.614C220.491 233.177 220.491 233.177 220.509 232.759L220.518 232.529L220.563 231.796L220.581 231.539C220.64 230.686 220.725 229.847 220.924 229.013C221.08 228.456 221.276 227.914 221.513 227.386C221.881 226.616 222.311 225.876 222.798 225.176C223.285 224.505 223.825 223.874 224.411 223.287C224.966 222.786 225.563 222.333 226.195 221.934C226.912 221.49 227.659 221.096 228.431 220.757C229.017 220.536 229.602 220.373 230.213 220.245C231.3 220.053 232.396 220.005 233.497 219.956C234.798 219.904 236.091 219.746 237.366 219.482C238.543 219.214 239.695 218.845 240.808 218.377C241.999 217.841 243.141 217.204 244.221 216.471C245.086 215.852 245.914 215.184 246.702 214.47C247.332 213.901 247.913 213.28 248.439 212.613C249.206 211.574 249.882 210.471 250.46 209.316C250.956 208.346 251.417 207.369 251.746 206.327C251.975 205.581 252.173 204.827 252.341 204.064L252.398 203.839C252.493 203.421 252.563 203.015 252.59 202.589C252.6 202.189 252.605 201.79 252.603 201.393L252.605 200.931L252.608 199.679V198.876C252.603 194.581 252.405 190.298 252.19 186.012L252.039 182.892C251.892 179.793 251.741 176.693 251.586 173.594L251.459 171.072L251.385 169.597C251.258 167.191 251.173 164.783 251.128 162.374L251.121 161.979L251.11 161.264C251.11 160.714 251.132 160.17 251.214 159.624C251.399 158.801 251.654 157.996 251.974 157.215C252.171 156.816 252.402 156.434 252.664 156.074C252.986 155.661 253.33 155.265 253.695 154.889L253.898 154.668C254.235 154.309 254.596 153.973 254.981 153.665C255.352 153.398 255.747 153.166 256.16 152.97C256.963 152.609 257.79 152.304 258.635 152.056C258.996 151.984 258.996 151.984 259.357 151.957C260.297 151.957 261.222 151.986 262.154 152.119ZM39.1757 297.226H39.8524L39.8434 297.411C39.584 303.224 39.5952 309.037 39.6043 314.852V319.084C39.6045 324.033 39.6083 328.982 39.6155 333.931V336.437L39.6268 355.423C39.4794 355.504 39.3291 355.58 39.1757 355.649C38.8373 355.678 38.8373 355.678 38.4403 355.68L38.2192 355.683L37.4906 355.687H36.9718C36.6109 355.69 36.2477 355.691 35.8823 355.689L34.7883 355.696C32.8371 355.712 30.9107 355.674 28.973 355.444L28.7362 355.416C27.5362 355.279 26.3504 355.038 25.1925 354.695C24.109 354.339 23.0559 353.897 22.0435 353.373C21.2953 352.972 20.5802 352.511 19.905 351.997C19.3945 351.579 18.9002 351.142 18.423 350.686L18.1523 350.434C17.61 349.917 17.1057 349.362 16.6433 348.773C15.9043 347.753 15.2531 346.671 14.6966 345.541C14.2979 344.708 13.9645 343.845 13.6995 342.96C13.3486 341.679 13.1072 340.371 12.9777 339.049L12.9461 338.769C12.6619 335.889 12.7747 332.99 12.8379 330.1C12.8559 329.323 12.8709 328.544 12.883 327.764C12.9439 324.274 13.0499 320.787 13.2349 317.302L13.5033 317.274C14.4033 317.184 15.2921 317.089 16.1673 316.85C16.4696 316.724 16.4696 316.724 16.7312 316.582C16.9687 316.428 17.1962 316.259 17.4125 316.077C17.7203 315.79 18.0033 315.477 18.2584 315.143C18.3817 314.949 18.4945 314.747 18.5967 314.538C18.7601 314.116 18.8869 313.681 18.9757 313.237C19.2035 312.116 19.3817 310.988 19.5509 309.858C19.9033 309.529 20.2804 309.227 20.6787 308.955C21.378 308.527 22.1044 308.139 22.8262 307.744C23.4563 307.398 24.0849 307.05 24.712 306.7L24.9082 306.591C27.0985 305.369 29.2482 304.078 31.3979 302.79C32.084 302.38 32.7727 301.974 33.4642 301.572C34.8176 300.783 36.1214 299.971 37.335 298.974C37.9852 298.431 38.6 297.847 39.1757 297.226ZM91.2829 158.95H99.4035C99.7487 160.076 99.9918 161.231 100.13 162.401C100.22 163.079 100.307 163.757 100.391 164.436L100.671 166.633C100.766 167.385 100.864 168.135 100.964 168.884C101.1 169.919 101.233 170.954 101.361 171.99L101.578 173.659C101.623 174.017 101.65 174.377 101.659 174.74C101.607 175.269 101.531 175.796 101.434 176.319L101.188 176.578L99.902 177.947L99.3403 178.543L99.1644 178.728C99.014 178.896 98.8681 179.071 98.7268 179.251C98.5982 179.567 98.5982 179.567 98.5012 179.928C98.4719 180.28 98.4719 180.28 98.4719 180.661V190.478C98.4786 200.572 98.5869 210.664 98.7268 220.757L98.0861 221.296L97.9057 221.449C97.3705 221.888 96.8018 222.285 96.2049 222.636L95.8913 222.83L94.9214 223.421L94.2537 223.829L92.6363 224.817L92.1852 224.366V179.251L90.155 176.996L89.2527 175.868C89.3836 173.792 89.5753 171.74 89.8392 169.678L89.9407 168.85L90.4325 164.948L90.6468 163.247L90.7483 162.439L90.931 160.984L90.9716 160.671L91.0054 160.405C91.0821 159.917 91.1859 159.435 91.2829 158.95ZM38.0478 269.706H38.7245C39.1509 271.623 39.4757 273.525 39.5682 275.487C39.6028 276.327 39.6253 277.167 39.6358 278.007C39.6575 279.246 39.6703 280.485 39.6742 281.724C39.6922 283.664 39.602 285.545 39.3065 287.463C39.1919 288.183 39.0237 288.893 38.8035 289.588L38.6681 289.964L38.5215 290.386C38.2554 291.135 37.9279 291.86 37.5425 292.554C37.2757 292.994 36.9928 293.423 36.6944 293.842L36.4462 294.216C36.2342 294.501 36.0177 294.758 35.7695 295.01C35.359 295.387 34.9056 295.707 34.4544 296.032L34.1251 296.271C32.9062 297.129 31.6564 297.941 30.3784 298.708L30.0062 298.933C28.0538 300.128 26.0781 301.283 24.0804 302.4L23.4826 302.736L22.366 303.357L22.0367 303.544L21.7231 303.713L21.457 303.862C21.1299 303.993 21.1299 303.993 20.8412 304.06C20.5615 304.116 20.2817 304.169 20.002 304.218C20.3688 299.975 20.7395 295.732 21.1141 291.489L21.2404 290.032C21.3983 288.225 21.5585 286.423 21.8134 284.625L21.8675 284.244C21.9639 283.539 22.1086 282.841 22.3006 282.155C22.4507 281.747 22.6309 281.35 22.8397 280.969C23.0466 280.62 23.278 280.286 23.5322 279.969C23.8638 279.591 24.2218 279.237 24.6037 278.909C26.7241 277.206 29.0565 275.76 31.319 274.262C32.8559 273.243 34.3845 272.213 35.9049 271.172L36.2365 270.946L38.0478 269.706ZM220.761 238.126C226.649 238.12 232.536 238.127 238.424 238.148L244.839 238.168L249.091 238.182H249.382L250.835 238.189L270.895 238.256H271.206L274.283 238.266L280.552 238.288H280.843L299.937 238.351L300.163 238.577V243.088L299.937 243.314H220.761C220.536 242.412 220.536 242.412 220.509 242.15V241.69L220.513 241.435V241.164L220.522 240.325L220.524 239.75L220.536 238.351L220.761 238.126ZM220.761 246.923H299.937L300.163 247.6C300.185 247.911 300.194 248.206 300.192 248.516V248.757C300.191 248.972 300.181 249.188 300.163 249.404L299.937 249.855H220.761V246.923Z" fill="#F4FCFE"/>
<path d="M245.348 316.625H258.883L259.108 316.85V330.385L258.883 330.61H245.574L245.348 330.385V316.625ZM249.6 299.903H253.591C254.613 299.899 255.636 299.899 256.659 299.903H256.934C257.696 299.908 258.33 300.027 259.108 300.158V313.692L258.883 313.918H245.348C245.089 311.843 245.089 311.843 245.118 310.812L245.125 310.458L245.15 309.323L245.166 308.524L245.211 306.449C245.229 305.738 245.244 305.028 245.256 304.32L245.348 300.158C246.77 299.935 248.164 299.899 249.6 299.903ZM262.492 316.625H276.026V330.385L275.801 330.61H262.492V316.625ZM262.492 300.158H276.026V313.692L275.801 313.918H262.492V300.158Z" fill="#073760"/>
<path d="M177.903 148.122C179.236 148.844 179.236 148.844 179.838 149.286C180.098 149.495 180.355 149.708 180.609 149.927C180.554 150.232 180.478 150.533 180.384 150.829C180.226 151.087 180.053 151.336 179.865 151.573L179.364 152.221C179.054 152.621 178.746 153.023 178.439 153.427L178.248 153.68C177.589 154.555 176.948 155.442 176.324 156.342L176.157 156.579L175.489 157.535C174.883 158.401 174.272 159.262 173.655 160.12L173.299 160.621L172.802 161.316C172.757 161.383 172.709 161.451 172.658 161.519C172.334 161.99 172.051 162.489 171.812 163.01H171.361L171.3 163.256C171.193 163.632 171.063 164.002 170.91 164.363C170.586 164.864 170.233 165.344 169.852 165.802L169.545 166.193C169.008 166.876 168.448 167.54 167.865 168.184C167.075 169.055 166.407 170.011 165.731 170.972C164.992 172.019 164.237 173.053 163.466 174.076L163.294 174.304C162.159 175.811 161.013 177.309 159.857 178.8L158.954 179.025L156.924 177.221L157.15 176.318C157.285 176.068 157.285 176.068 157.436 175.87L157.61 175.637L157.802 175.394L158.003 175.13L158.431 174.566C158.663 174.268 158.892 173.969 159.119 173.668L160.067 172.421C160.769 171.496 161.465 170.567 162.155 169.635L162.352 169.369C163.353 168.005 164.316 166.613 165.239 165.196C166.048 163.963 166.901 162.759 167.795 161.586C168.724 160.378 169.623 159.148 170.492 157.896C171.007 157.152 171.429 156.385 171.812 155.566L172.489 155.34L172.649 155.112C173.844 153.411 175.073 151.734 176.337 150.082L176.536 149.823L177.093 149.096L177.262 148.878C177.465 148.614 177.668 148.359 177.903 148.122ZM206.325 153.987L207.227 154.212L208.58 156.468V157.37L208.35 157.497C206.22 158.672 204.118 159.9 202.048 161.178C200.15 162.353 198.23 163.491 196.287 164.589L196.039 164.729C195.684 164.929 195.327 165.126 194.969 165.32C194.595 165.491 194.595 165.491 194.347 165.565C194.13 165.62 193.912 165.67 193.693 165.717L193.535 165.89C193.296 166.143 193.048 166.386 192.79 166.619C192.436 166.863 192.068 167.087 191.69 167.291L191.38 167.467L190.735 167.83L189.752 168.387L189.125 168.744L188.829 168.911C188.451 169.13 188.056 169.319 187.647 169.475L187.377 169.551C187.151 169.243 186.93 168.933 186.713 168.622L186.524 168.363C186.335 168.096 186.167 167.815 186.023 167.521C185.914 167.076 185.838 166.624 185.798 166.168C188.391 164.525 191.023 162.946 193.693 161.431L193.918 160.98L194.261 160.862C194.893 160.639 195.513 160.411 196.111 160.104C196.416 159.924 196.72 159.74 197.022 159.552C197.302 159.377 197.582 159.204 197.863 159.033L198.333 158.744C199.431 158.07 200.545 157.42 201.658 156.764L203.178 155.868C204.228 155.244 205.276 154.617 206.325 153.987ZM186.993 124.85C187.647 124.814 188.301 124.841 188.956 124.888L190.309 125.79C190.517 126.194 190.696 126.613 190.844 127.042C190.923 127.317 190.983 127.584 191.024 127.866C191.049 128.255 191.04 128.646 190.997 129.034C190.94 129.386 190.861 129.734 190.76 130.076C190.382 131.076 189.922 132.042 189.384 132.966C187.936 135.461 186.129 137.737 184.282 139.943C183.772 140.523 183.308 141.142 182.894 141.795L182.64 142.257H182.188C182.105 142.034 182.03 141.808 181.963 141.58C181.929 141.226 181.929 141.226 181.922 140.843L181.913 140.403L181.909 139.929L181.906 139.686C181.899 139.072 181.894 138.458 181.893 137.845V137.574C181.884 133.852 181.884 133.852 182.118 132.354C182.257 131.56 182.456 130.782 182.716 130.02C183.038 129.146 183.423 128.296 183.867 127.478C184.174 126.971 184.519 126.488 184.9 126.034C185.085 125.831 185.261 125.65 185.475 125.484C185.786 125.282 186.112 125.106 186.452 124.958C186.7 124.888 186.7 124.888 186.993 124.85ZM227.303 178.574C228.025 178.637 228.731 178.75 229.439 178.915C229.906 179.046 230.35 179.201 230.792 179.398C231.304 179.646 231.796 179.932 232.265 180.252C232.488 180.415 232.699 180.589 232.897 180.776C233.04 180.931 233.178 181.09 233.31 181.254L233.619 181.732L233.844 183.311C233.619 183.853 233.382 184.387 233.091 184.897C232.942 185.116 232.942 185.116 232.782 185.287C232.517 185.501 232.236 185.693 231.941 185.862C231.674 185.98 231.435 186.072 231.156 186.147C230.776 186.235 230.39 186.292 230.001 186.318C229.476 186.335 228.951 186.31 228.431 186.244C227.878 186.118 227.332 185.966 226.793 185.79L226.558 185.716C224.664 185.118 222.893 184.265 221.111 183.392C220.44 183.063 219.769 182.738 219.097 182.416L218.409 182.077C217.786 181.762 217.138 181.499 216.471 181.292C216.173 181.208 215.874 181.129 215.573 181.055L215.799 180.379C217.13 179.806 218.476 179.278 219.884 178.928C222.309 178.398 224.835 178.405 227.303 178.574ZM228.092 143.737C228.437 143.746 228.769 143.777 229.107 143.836C229.41 143.904 229.674 143.994 229.967 144.105C230.339 144.287 230.339 144.287 230.686 144.513C231.106 144.851 231.453 145.237 231.814 145.641L232.04 147.445C231.888 147.845 231.705 148.233 231.494 148.605C231.359 148.808 231.212 148.981 231.045 149.157C230.726 149.465 230.384 149.747 230.021 150.001C229.619 150.256 229.195 150.477 228.756 150.66C228.149 150.886 227.527 151.067 226.895 151.201C224.434 151.657 221.887 151.618 219.39 151.693C218.253 151.73 217.118 151.785 215.984 151.857L215.736 151.873L214.445 151.957C214.582 151.649 214.733 151.348 214.896 151.054C215.116 150.755 215.352 150.469 215.602 150.195C215.669 150.115 215.739 150.036 215.812 149.958C216.491 149.201 217.23 148.501 218.023 147.865C218.894 147.206 219.818 146.638 220.761 146.092L221.082 145.905C221.85 145.462 222.647 145.072 223.468 144.738C224.95 144.215 226.513 143.757 228.092 143.737ZM206.776 179.251L207.193 179.352L207.453 179.476C207.535 179.908 207.615 180.34 207.692 180.774L207.764 181.141L207.827 181.502L207.888 181.831L207.904 182.183C207.84 182.488 207.757 182.786 207.678 183.086C203.386 183.891 199.087 184.662 194.782 185.4L192.822 185.738C192.18 185.851 191.537 185.962 190.893 186.072L189.759 186.271L188.507 186.485L188.139 186.55L187.794 186.609L187.498 186.659C187.009 186.711 186.515 186.695 186.023 186.695L185.572 182.86C186.738 182.567 187.866 182.305 189.046 182.116L189.52 182.039L190.787 181.831L192.132 181.613L197.539 180.728L200.02 180.322L200.279 180.28L203.182 179.81L204.71 179.555L205.506 179.425L205.867 179.359C206.174 179.31 206.469 179.267 206.776 179.251ZM179.482 169.777H180.384L181.737 172.484L181.286 173.386L180.853 173.636C178.018 175.267 175.207 176.938 172.421 178.651C171.466 179.242 170.498 179.813 169.518 180.363L168.85 180.737L167.822 181.317C166.279 182.181 164.752 183.071 163.24 183.988L162.338 183.762L160.985 181.281L161.21 180.604L161.458 180.469C163.644 179.264 165.801 178.008 167.928 176.702L168.911 176.102L169.204 175.921C169.795 175.56 170.364 175.165 170.91 174.739H171.361L171.587 174.288L171.954 174.11C172.59 173.792 173.204 173.433 173.82 173.077L176.014 171.809L176.991 171.245L177.354 171.036C178.067 170.622 178.776 170.202 179.482 169.777ZM179.707 183.762L179.933 187.597C178.252 187.949 176.553 188.208 174.844 188.373L173.229 188.545L172.818 188.59C171.88 188.692 170.943 188.802 170.008 188.919L169.624 188.966L168.162 189.151C166.734 189.336 165.358 189.433 163.917 189.402L163.466 186.018C167.657 185.292 171.856 184.62 176.064 184.001L176.703 183.907C177.733 183.758 178.638 183.762 179.707 183.762Z" fill="#1DCAD5"/>
</svg>
