<svg width="802" height="581" viewBox="0 0 802 581" fill="none" xmlns="http://www.w3.org/2000/svg">
<path d="M406.818 125.075C407.348 125.039 407.84 125.075 408.375 125.114L409.728 126.016C409.972 126.521 410.179 127.024 410.341 127.563C410.405 127.821 410.405 127.821 410.463 128.265C410.463 128.506 410.445 128.732 410.416 128.971C410.326 129.402 410.197 129.824 410.032 130.232C409.487 131.523 408.831 132.764 408.07 133.94C406.597 136.196 404.903 138.292 403.182 140.362C402.792 140.832 402.418 141.313 402.058 141.806C401.948 141.623 401.948 141.623 401.833 141.355C401.799 141.046 401.799 141.046 401.792 140.685L401.786 140.272C401.773 139.382 401.766 138.492 401.763 137.601C401.754 134.089 401.754 134.089 401.989 132.61C402.129 131.81 402.329 131.022 402.586 130.252C402.906 129.375 403.29 128.523 403.737 127.703C404.043 127.197 404.388 126.714 404.768 126.26C404.991 126.016 404.991 126.016 405.183 125.842C405.482 125.627 405.799 125.436 406.13 125.274C406.365 125.177 406.568 125.116 406.818 125.075Z" fill="#F4FCFE"/>
<path d="M414.691 0.597835L415.106 0.638438C420.885 1.22493 426.644 2.26256 432.242 3.82577C438.398 5.58785 444.39 7.87607 450.153 10.6651C454.601 12.8284 458.955 15.2059 462.977 18.1C464.035 18.8669 465.083 19.6497 466.121 20.4482L466.308 20.5926C466.917 21.0587 467.516 21.537 468.104 22.0272C468.405 22.2753 468.708 22.5205 469.013 22.7626C471.368 24.6716 473.569 26.7639 475.595 29.0199C476.294 29.841 476.903 30.7208 477.452 31.6479C477.848 32.3307 478.208 33.0348 478.528 33.757L478.302 35.1104L477.4 35.7871C476.718 35.77 476.039 35.6945 475.37 35.5615C474.864 35.3813 474.373 35.1602 473.903 34.9006L473.387 34.6232L472.834 34.3389L471.67 33.7321C470.658 33.2043 469.642 32.6855 468.623 32.1757L468.32 32.0223C466.042 30.869 463.676 29.8982 461.244 29.1192C460.922 29.0169 460.602 28.9132 460.283 28.8079C456.374 27.5312 452.393 26.7326 448.328 26.1507C445.276 25.7284 442.202 25.4836 439.122 25.4176L438.254 25.395C433.769 25.279 429.282 25.5522 424.844 26.2116C421.741 26.701 418.686 27.4488 415.708 28.447C413.178 29.3394 410.726 30.4363 408.375 31.7268L408.002 31.9276C406.473 32.7555 405.015 33.7092 403.644 34.7788C402.043 36.0601 400.563 37.4857 399.126 38.9451L398.898 39.173C398.332 39.7367 397.805 40.3389 397.322 40.9753C396.47 42.2544 395.729 43.6037 395.106 45.0085C394.745 45.9197 394.453 46.857 394.233 47.8124L394.152 48.1349C393.848 49.4839 393.789 50.8779 393.712 52.2539C393.665 53.4043 393.645 54.557 393.622 55.7097L393.595 57.0744L393.55 59.4519L393.48 62.9753L393.367 68.5177L393.076 82.9543L393.045 84.4746C392.828 94.9863 392.595 105.496 392.345 116.003L392.303 117.765L392.221 121.168L392.217 121.448L392.072 127.457L392.014 129.873L392.007 130.144L391.811 138.637L391.759 140.987L391.752 141.319L391.721 142.643L391.551 150.288C391.513 152.131 391.461 153.96 391.231 155.792L392.359 155.566L392.519 155.338C394.144 153.045 395.82 150.79 397.547 148.573C398.359 148.966 398.359 148.966 398.698 149.18L399.09 149.464L399.295 149.615L399.512 149.773L400.028 150.152C399.341 151.199 398.619 152.222 397.863 153.22C396.396 155.197 394.958 157.195 393.55 159.214L392.749 160.35L392.316 160.966L392.127 161.237L391.955 161.481L391.811 161.684C391.673 161.898 391.56 162.103 391.457 162.333C391.412 162.575 391.412 162.575 391.389 162.836L391.335 163.452L391.306 163.786C391.213 164.932 391.181 166.078 391.159 167.228L391.145 167.885L391.112 169.585L391.075 171.334L391.005 174.74C392.009 174.356 392.009 174.356 392.463 174.11C392.553 174.055 392.643 173.997 392.733 173.937L393.058 173.734L393.401 173.513L394.168 173.034L394.376 172.906C395.368 172.292 396.383 171.712 397.391 171.13L397.687 170.961L399.352 170.003H399.803L400.931 172.258L400.705 173.161L400.527 173.264C397.401 175.064 394.302 176.909 391.231 178.8H390.554L390.667 179.057L390.78 179.477C390.812 179.91 390.807 180.343 390.802 180.776V181.153L390.793 182.339L390.791 183.144L390.78 185.116L390.965 185.084C396.431 184.123 396.431 184.123 399.126 183.988L399.352 187.372C397.773 187.706 396.181 187.969 394.579 188.159C394.203 188.204 393.827 188.251 393.451 188.301L392.72 188.391L392.386 188.434C392.078 188.473 391.768 188.495 391.457 188.5C391.073 188.448 390.703 188.373 390.329 188.274L390.442 188.572L390.554 188.951C390.584 189.273 390.584 189.273 390.586 189.614L390.588 190.011V190.915C390.591 191.627 390.591 192.338 390.588 193.049C390.584 198.756 390.385 204.463 390.216 210.17C390.094 214.26 389.977 218.354 389.884 222.446L389.871 223.114C389.699 230.548 389.699 230.548 390.2 233.898C390.348 234.822 390.51 235.742 390.687 236.659C390.797 237.241 390.902 237.824 391.001 238.407C391.136 239.183 391.276 239.959 391.421 240.735C391.688 242.191 391.925 243.653 392.133 245.118L392.312 245.22C392.859 245.525 393.387 245.866 393.891 246.239C394.154 246.463 394.398 246.707 394.621 246.97C395.761 248.427 396.683 250.081 397.558 251.705C398.287 253.081 398.898 254.493 399.381 255.975C399.762 257.221 400.054 258.493 400.254 259.78L400.315 260.137C400.531 261.596 400.509 263.056 400.502 264.531L400.498 265.474C400.489 269.2 400.441 272.927 400.394 276.653L400.351 280.095L400.346 280.423L400.331 281.74L400.308 283.756C400.198 292.934 400.098 302.112 400.006 311.29C399.78 333.168 399.78 333.168 399.78 353.091V353.447C399.785 355.685 399.792 357.922 399.803 360.16H413.788L414.014 185.116L409.277 186.018C408.149 186.176 407.021 186.334 405.893 186.469L405.442 183.086C407.078 182.639 408.733 182.362 410.405 182.08L411.551 181.886L413.788 181.507L413.791 181.265L413.901 172.644C413.919 170.988 413.94 169.331 413.964 167.675L413.971 167.014L413.978 166.615L413.982 166.269L414.014 165.942C414.082 165.717 414.157 165.491 414.239 165.266L413.112 165.491L412.73 165.899C412.489 166.149 412.227 166.376 411.945 166.578C411.661 166.75 411.375 166.915 411.086 167.075L410.77 167.253L409.784 167.803L409.112 168.182L407.472 169.1L406.796 168.875L405.668 166.845L405.893 166.168L409.263 164.169L410.299 163.554L410.876 163.211C411.767 162.684 412.662 162.166 413.563 161.656C413.676 161.481 413.676 161.481 413.788 161.205C413.818 160.844 413.818 160.844 413.818 160.405V159.335L413.822 158.74V157.093L413.827 155.302L413.833 152.162L413.84 147.493C413.852 142.284 413.861 137.076 413.867 131.867V131.624L413.872 129.418L413.881 123.936V123.684L413.903 111.539L413.908 107.321V107.059L413.93 94.9074V94.1178L413.939 88.8913L413.957 78.4902V77.9939L414.014 45.0356L414.776 45.6875L414.993 45.8724C415.473 46.2785 415.935 46.7033 416.38 47.1469L416.579 47.3454L417.217 47.9838L417.684 48.4485L420.255 51.02L425.015 55.7796C426.747 57.5068 428.476 59.2362 430.203 60.9677C431.045 61.8091 431.85 62.6686 432.628 63.5686C433.172 64.1979 433.742 64.7935 434.336 65.3799L435.312 66.3499L436.366 67.3988L438.601 69.623L441.89 72.8938C443.947 74.9329 443.947 74.9329 444.777 75.9119C445.874 77.1977 447.101 78.3706 448.296 79.5617L449.352 80.6106C451.202 82.4572 453.054 84.3016 454.908 86.1439L455.952 87.1815C458.418 89.629 458.418 89.629 459.214 90.5741C460.43 92.011 461.81 93.308 463.146 94.6344L464.368 95.8525L467.474 98.9474L472.042 103.499C474.966 106.405 474.966 106.405 475.956 107.573C476.709 108.46 477.544 109.267 478.37 110.086L479.288 110.997L481.234 112.933L484.388 116.068L484.947 116.623L485.191 116.865C485.726 117.397 486.222 117.956 486.716 118.527C487.537 119.474 488.408 120.361 489.299 121.245L490.887 122.826L492.599 124.534C495.118 127.05 497.639 129.563 500.162 132.075L501.861 133.767L502.921 134.825L503.408 135.31C504.283 136.173 505.125 137.07 505.93 137.998C506.545 138.699 507.187 139.376 507.854 140.026L508.233 140.403L509.041 141.206L510.322 142.483L513.04 145.19L517.039 149.173C519.561 151.677 519.561 151.677 520.558 152.855C521.546 154.005 522.654 155.052 523.728 156.119L524.725 157.111L527.251 159.626L530.966 163.326C533.326 165.665 533.326 165.665 534.357 166.876C535.094 167.738 535.904 168.53 536.709 169.328L537.582 170.194L539.432 172.033L542.43 175.01C543.215 175.776 543.967 176.573 544.686 177.401C545.764 178.66 546.959 179.811 548.137 180.977L549.152 181.99L551.726 184.552L555.513 188.321C557.929 190.721 557.929 190.721 558.964 191.931C559.709 192.806 560.525 193.607 561.34 194.412L561.849 194.922L563.171 196.239L564.529 197.592C565.41 198.472 566.293 199.351 567.177 200.229V200.455H545.523L545.748 360.16H580.261L580.937 360.386V382.943L580.712 383.168H227.014L226.789 382.943V360.611L228.368 360.16C228.715 360.121 229.063 360.103 229.412 360.106H229.694C230 360.104 230.303 360.105 230.606 360.108H231.26C231.846 360.108 232.43 360.11 233.012 360.115L234.097 360.119C238.507 360.134 242.913 360.223 247.316 360.386V359.483L246.932 359.465C246.058 359.415 245.189 359.295 244.334 359.104C243.273 358.846 242.235 358.502 241.23 358.076C240.064 357.574 238.944 356.973 237.88 356.28C237.004 355.667 236.162 355.004 235.361 354.295L235.072 354.045C234.351 353.404 233.684 352.704 233.078 351.954C232.317 350.986 231.639 349.957 231.05 348.877C230.32 347.52 229.701 346.105 229.2 344.647C228.76 343.238 228.434 341.794 228.226 340.332C227.995 338.391 227.888 336.438 227.905 334.483V334.221C227.908 331.122 227.969 328.023 228.018 324.923L228.059 322.275L228.142 316.85L226.563 316.625L225.726 316.029L225.435 315.722C225.307 315.508 225.307 315.508 225.187 315.249C225.07 314.942 225.07 314.942 224.984 314.594C224.955 314.008 225 313.433 225.05 312.849L225.086 312.339C225.135 311.65 225.189 310.962 225.248 310.275C225.323 309.318 225.402 308.363 225.485 307.408L225.688 304.999C225.789 303.781 225.892 302.562 225.997 301.344C226.626 294.054 226.626 294.054 226.629 291.261V290.979C226.632 290.429 226.61 289.879 226.563 289.33C226.478 288.85 226.367 288.383 226.211 287.921C225.968 287.372 225.678 286.845 225.345 286.346C224.964 285.805 224.542 285.295 224.082 284.819C223.868 284.611 223.653 284.406 223.435 284.203C221.788 282.658 221.788 282.658 221.233 281.925C220.849 281.367 220.511 280.779 220.225 280.165C220.057 279.771 219.914 279.366 219.796 278.954C219.717 278.541 219.67 278.142 219.645 277.722C219.64 277.192 219.668 276.68 219.735 276.155C219.807 275.719 219.91 275.289 220.042 274.867C220.183 274.496 220.352 274.136 220.547 273.791C220.795 273.369 221.072 272.965 221.375 272.582C221.653 272.276 221.954 271.993 222.277 271.736C222.76 271.398 223.271 271.102 223.805 270.851C225.183 270.245 226.64 269.9 228.095 269.543L228.384 269.473C234.569 267.962 234.569 267.962 237.409 266.742C240.346 265.445 243.066 263.701 245.793 262.018C246.658 261.487 247.525 260.958 248.394 260.43L248.59 260.313L249.382 259.832C251.882 258.32 254.377 256.801 256.867 255.273L257.94 254.615L258.556 254.238L258.811 254.08C259.046 253.916 259.046 253.916 259.303 253.67L259.497 253.464L259.447 253.261C259.359 252.855 259.28 252.458 259.251 252.046C259.244 251.74 259.242 251.435 259.244 251.13V248.786L259.246 246.995L259.251 244.405C259.25 241.646 259.254 238.886 259.26 236.127V233.878L259.271 224.14H241C242.556 222.326 242.556 222.326 243.362 221.526L244.562 220.33L245.232 219.658L248.841 216.053L257.437 207.463L259.754 205.151L259.986 204.917L265.499 199.413L265.743 199.167L269.652 195.262L273.315 191.603L273.559 191.36L279.061 185.865L279.293 185.63L281.605 183.323C285.174 179.752 288.746 176.185 292.32 172.619L294.571 170.37C295.6 169.344 296.619 168.318 297.553 167.206C297.941 166.738 298.379 166.315 298.859 165.942C299.422 165.498 299.932 164.991 300.38 164.431C301.196 163.484 302.06 162.595 302.944 161.713L303.42 161.239L304.406 160.253L306.644 158.013L307.95 156.71C308.112 156.549 308.278 156.393 308.446 156.243L308.897 156.017L309.123 154.889H307.769L307.589 154.337L307.345 153.606L307.228 153.245L307.108 152.884L307 152.559C306.82 152.052 306.617 151.553 306.416 151.055L310.828 149.331C313.106 148.44 315.385 147.572 317.695 146.769L317.92 145.866L317.706 145.907C311.074 147.136 311.074 147.136 307.769 147.445L307.693 147.215L307.228 145.801L307.108 145.44L307 145.115C306.82 144.608 306.617 144.109 306.416 143.611C308.276 142.835 310.137 142.062 311.999 141.292L312.847 140.938C314.536 140.238 316.227 139.55 317.92 138.874L318.146 138.197L317.792 138.258C315.369 138.669 312.945 139.078 310.521 139.483L309.644 139.632L309.384 139.677C308.974 139.744 308.577 139.785 308.16 139.785L307.769 139.776L307.693 139.546L307.228 138.132L307.108 137.771L307 137.446C306.82 136.938 306.617 136.44 306.416 135.941C308.261 134.949 310.183 134.175 312.127 133.404C312.924 133.09 313.72 132.773 314.514 132.452L315.006 132.253C316.029 131.838 317.078 131.488 318.146 131.204V130.302L317.916 130.354C315.767 130.831 313.601 131.23 311.424 131.549L310.183 131.739L307.769 132.106L307.693 131.856L307.348 130.71L307.228 130.315C306.997 129.545 306.726 128.788 306.416 128.046C308.232 127.182 310.084 126.445 311.969 125.745L313.876 125.028L314.282 124.875C315.424 124.445 316.562 123.998 317.695 123.535L317.92 122.858L317.584 122.91C315.483 123.233 313.381 123.554 311.279 123.871L310.688 123.961C308.951 124.23 308.951 124.23 308.202 124.232L307.769 124.211L307.693 123.981L307.228 122.567L307.108 122.206L307 121.881C306.82 121.374 306.617 120.875 306.416 120.377C308.41 119.533 310.418 118.73 312.432 117.936L313.684 117.442L314.667 117.054L315.127 116.874C316.048 116.507 316.979 116.171 317.92 115.865L318.146 115.189L317.821 115.24L313.21 115.962L311.121 116.292C310.26 116.427 309.418 116.56 308.543 116.562L307.995 116.542L307.769 116.316L307.544 113.384L301.679 113.158C301.679 111.354 301.679 111.354 301.778 110.722C301.828 110.533 301.879 110.344 301.932 110.156L302.022 109.84C302.225 109.184 302.48 108.546 302.784 107.93C303.12 107.288 303.505 106.672 303.935 106.089C304.483 105.391 305.087 104.738 305.739 104.136C306.354 103.607 307.013 103.133 307.708 102.717C308.243 102.414 308.796 102.146 309.364 101.914C309.653 101.803 309.951 101.733 310.251 101.654L312.506 101.429V107.294H317.695V101.429L319.95 101.654C320.652 101.904 321.333 102.208 321.987 102.563C322.775 102.96 323.528 103.424 324.236 103.951C324.803 104.42 325.331 104.934 325.815 105.489C326.343 106.106 326.818 106.767 327.236 107.463C327.536 107.99 327.799 108.538 328.023 109.103C328.212 109.654 328.355 110.22 328.452 110.794C328.566 111.504 328.665 112.217 328.748 112.933L328.522 113.158H322.432L323.108 115.189C323.263 115.715 323.414 116.241 323.559 116.768L322.657 117.219C322.533 120.44 322.533 120.44 322.657 121.73C322.725 122.145 322.842 122.538 322.98 122.935C323.154 123.368 323.347 123.793 323.559 124.211L322.432 124.663C322.444 125.269 322.459 125.874 322.477 126.478C322.484 126.683 322.489 126.888 322.492 127.094C322.504 127.692 322.524 128.288 322.598 128.881C322.657 129.174 322.657 129.174 322.754 129.467C322.938 129.914 323.142 130.351 323.368 130.778C323.478 130.997 323.478 130.997 323.559 131.204C323.586 131.599 323.586 131.599 323.559 131.881L322.657 132.332C322.635 132.974 322.618 133.616 322.607 134.256L322.589 134.91C322.558 135.532 322.564 136.155 322.607 136.776C322.657 137.069 322.657 137.069 322.75 137.353C322.975 137.883 323.246 138.391 323.559 138.874L323.334 139.776L322.657 140.227L322.432 141.806C322.896 141.693 322.896 141.693 323.214 141.565L323.559 141.355C323.808 141.116 324.02 140.852 324.236 140.588C325.238 139.406 326.336 138.323 327.435 137.231L328.351 136.316L332.23 132.445L335.966 128.718L336.191 128.493L337.996 126.693L339.575 125.118L339.801 124.893L347.38 117.331L348.282 116.431C349.455 115.286 350.582 114.093 351.659 112.856C352.058 112.389 352.48 111.952 352.913 111.518L353.154 111.273L354.479 109.946C354.858 109.563 355.237 109.182 355.618 108.805L357.07 107.343L358.735 105.674L359.484 104.925L359.703 104.699C359.901 104.501 360.11 104.313 360.328 104.136C360.623 103.962 360.914 103.824 361.23 103.684C361.274 97.2616 361.227 90.8395 361.09 84.4182L361.086 84.1656C361.015 80.7894 360.939 77.4134 360.86 74.0374L360.853 73.7757L360.831 72.7246L360.734 68.344L360.711 67.374C360.666 65.2762 360.617 63.1784 360.565 61.0805L360.542 60.0858C360.499 58.2713 360.451 56.4569 360.4 54.6427L360.371 53.596L360.362 53.2554L360.328 52.9306C360.26 52.705 360.185 52.4795 360.102 52.2539C358.361 51.1531 356.628 50.1064 354.72 49.3147C353.842 48.9643 352.952 48.647 352.051 48.3628L351.729 48.259C350.558 47.911 349.36 47.6628 348.147 47.5169C347.195 47.4402 346.241 47.4402 345.284 47.4469H344.899C343.502 47.456 342.113 47.4763 340.732 47.7018C339.516 47.9324 338.322 48.2667 337.164 48.7011C335.985 49.1852 334.841 49.7513 333.742 50.3952L333.39 50.5937L333.081 50.7741L332.808 50.9005H332.357L331.906 52.0283C328.101 52.0599 324.296 52.0825 320.492 52.096L319.138 52.1028H318.867C317.422 52.1103 315.976 52.12 314.527 52.1321C313.039 52.1471 311.551 52.1546 310.066 52.1546C309.15 52.1561 308.234 52.1629 307.318 52.1749C306.687 52.1825 306.056 52.1847 305.428 52.1817C305.064 52.1802 304.702 52.1832 304.341 52.1907C303.571 52.202 302.809 52.1997 302.044 52.105C301.679 52.0283 301.679 52.0283 301.298 51.902C300.584 51.6094 299.896 51.2602 299.238 50.8576C298.994 50.6921 298.76 50.5113 298.539 50.3162C298.356 50.1355 298.185 49.9434 298.027 49.741C297.734 49.3154 297.476 48.8665 297.255 48.3989C297.03 47.8964 296.849 47.3747 296.716 46.8402C296.567 45.7619 296.585 44.6701 296.592 43.5851L296.585 42.2858C296.579 41.4422 296.578 40.5971 296.581 39.7504L296.579 37.6864V37.3887L296.576 36.7887C296.57 34.9164 296.57 33.0457 296.576 31.1764C296.576 29.4711 296.572 27.7658 296.563 26.0604C296.554 24.301 296.55 22.543 296.552 20.7866C296.552 19.8016 296.549 18.8166 296.545 17.8316C296.54 16.9954 296.54 16.1586 296.545 15.3209V14.0419C296.531 13.1509 296.538 12.2622 296.64 11.3757C296.716 10.9742 296.716 10.9742 296.843 10.5726C297.088 9.9668 297.375 9.37887 297.702 8.81318C297.874 8.53682 298.066 8.27367 298.277 8.02593C298.523 7.7644 298.789 7.52161 299.071 7.29959C299.57 6.94186 300.098 6.62718 300.65 6.35895C301.036 6.22361 301.413 6.13789 301.814 6.05894C302.342 5.97999 302.863 5.98225 303.395 5.9845H305.87L307.765 5.98676L310.499 5.99127C313.415 5.99002 316.331 5.99228 319.246 5.99804H319.515L320.848 6.00029L331.906 6.01157L332.018 6.20556L332.542 7.08529L332.722 7.39207C333.07 7.9937 333.463 8.56895 333.895 9.11319C334.247 9.50695 334.629 9.87203 335.039 10.205C335.45 10.5143 335.883 10.794 336.334 11.0418C337.163 11.4569 338.026 11.8039 338.912 12.0795C340.287 12.4771 341.692 12.7593 343.114 12.9231C344.211 13.0517 345.302 13.1103 346.408 13.0697C347.69 12.984 348.957 12.7923 350.208 12.4945C351.186 12.254 352.141 11.9341 353.066 11.5381C354.573 10.8524 355.981 9.97713 357.395 9.12447C359.813 7.6605 362.241 6.26196 364.877 5.23109C366.458 4.64175 368.062 4.11575 369.684 3.65434C373.623 2.46783 377.591 1.74374 381.669 1.25651C385.073 0.859499 388.493 0.615882 391.912 0.399332C392.303 0.375271 392.694 0.349706 393.083 0.322637C400.22 -0.162344 407.574 -0.123996 414.691 0.597835Z" fill="#073760"/>
<path d="M363.035 200.906H363.486C363.576 201.208 363.653 201.497 363.711 201.808C363.754 202.302 363.765 202.796 363.779 203.29C363.905 207.392 364.008 211.495 364.088 215.598L364.095 215.891L364.12 217.05C364.147 218.283 364.177 219.517 364.21 220.75C364.401 226.883 364.05 233.021 363.163 239.093C363.044 239.887 362.923 240.68 362.798 241.473L362.739 241.836C362.414 243.893 362.414 243.893 362.105 244.825C362.041 244.999 361.974 245.172 361.907 245.344L360.542 246.05L360.319 246.163L360.102 246.246H359.651L359.462 246.627C359.183 247.178 358.898 247.724 358.604 248.267C356.182 252.815 356.182 252.815 355.566 254.61C355.113 256.037 354.782 257.492 354.571 258.973C354.409 260.245 354.415 261.526 354.402 262.808L354.391 263.658L354.368 265.751L354.337 268.278L354.224 277.72C354.084 289.145 353.962 300.571 353.725 324.682L353.669 330.473L353.66 331.47C353.567 340.883 353.458 350.297 353.335 359.709L352.884 360.16H259.271L259.046 355.649L256.267 355.671C255.695 355.671 255.125 355.675 254.555 355.682C252.561 355.705 250.591 355.682 248.609 355.446L248.374 355.419C247.176 355.28 245.993 355.038 244.837 354.694C243.753 354.339 242.7 353.897 241.688 353.373C240.94 352.971 240.225 352.511 239.55 351.997C239.039 351.579 238.545 351.142 238.068 350.686L237.797 350.433C237.255 349.917 236.75 349.362 236.288 348.773C235.549 347.753 234.898 346.673 234.341 345.543C233.942 344.709 233.609 343.846 233.344 342.96C232.993 341.679 232.752 340.371 232.622 339.049L232.591 338.769C232.306 335.889 232.419 332.99 232.482 330.1C232.5 329.323 232.515 328.544 232.528 327.763C232.588 324.274 232.694 320.786 232.879 317.301L233.148 317.274C234.048 317.184 234.937 317.089 235.812 316.85C236.114 316.726 236.114 316.726 236.376 316.582C236.613 316.428 236.841 316.259 237.057 316.076C237.365 315.79 237.648 315.477 237.903 315.143C238.026 314.949 238.139 314.747 238.241 314.538C238.405 314.116 238.531 313.68 238.62 313.237C238.848 312.115 239.026 310.988 239.195 309.857C239.548 309.528 239.925 309.227 240.323 308.955C241.023 308.527 241.749 308.139 242.471 307.744C243.101 307.398 243.729 307.05 244.357 306.699L244.553 306.589C246.743 305.371 248.893 304.078 251.042 302.79C251.728 302.38 252.417 301.974 253.109 301.572C254.462 300.783 255.766 299.971 256.98 298.974C257.63 298.431 258.245 297.847 258.82 297.225H259.271L259.348 297.009C259.462 296.701 259.587 296.397 259.722 296.098C259.864 295.875 260.014 295.659 260.174 295.45C260.579 294.904 260.941 294.327 261.256 293.725C261.694 292.83 262.061 291.903 262.355 290.952C262.612 290.034 262.784 289.096 262.95 288.16L263.007 287.853C263.458 285.297 263.609 282.732 263.614 280.138V279.746C263.614 276.971 263.359 274.242 262.881 271.51C262.747 270.781 262.591 270.057 262.411 269.338C262.327 269.013 262.258 268.684 262.204 268.352C262.183 267.826 262.183 267.3 262.204 266.773C263.677 265.548 265.254 264.495 266.855 263.448C268.763 262.199 268.763 262.199 269.422 261.585L269.679 261.265C269.788 261.051 269.89 260.835 269.986 260.617L270.099 260.232C270.148 259.771 270.155 259.345 270.144 258.885C270.103 258.348 269.988 257.825 269.873 257.299C271.204 256.32 272.578 255.431 273.99 254.579C275.542 253.637 277.083 252.679 278.614 251.703L278.93 251.5L280.518 250.485L283.324 248.698L284.876 247.712L285.185 247.514L287.035 246.336C289.946 244.478 292.869 242.635 295.803 240.81L299.268 238.647L299.61 238.432C301.189 237.444 302.768 236.452 304.347 235.455C306.529 234.072 308.728 232.714 310.927 231.358H311.83L312.281 230.456C314.607 228.982 316.938 227.516 319.274 226.057C322.561 224.003 325.839 221.933 329.109 219.847C330.436 219.001 331.767 218.162 333.103 217.33C334.365 216.545 335.618 215.748 336.861 214.939C338.379 213.954 339.899 212.975 341.423 212.002L341.783 211.77C343.594 210.613 345.405 209.459 347.217 208.307C348.481 207.504 349.742 206.695 351 205.88L352.381 204.987L353.667 204.15L355.124 203.202L355.681 202.841C356.858 202.063 356.858 202.063 357.395 201.808C357.819 201.684 357.819 201.684 358.196 201.619C358.381 201.601 358.565 201.589 358.749 201.583L358.954 201.693L359.2 201.808C359.511 201.862 359.511 201.862 359.877 201.878C360.093 201.88 360.31 201.872 360.526 201.856C360.822 201.799 361.088 201.711 361.368 201.608C361.852 201.412 362.33 201.206 362.802 200.99L363.035 200.906ZM317.695 100.978C318.687 101.144 319.666 101.357 320.627 101.654C321.596 102.023 322.532 102.474 323.424 103.003C323.985 103.361 324.516 103.763 325.012 104.205C325.63 104.788 326.198 105.42 326.711 106.096C327.164 106.72 327.563 107.383 327.902 108.076C328.331 109.037 328.639 110.048 328.818 111.085L328.878 111.39L328.928 111.683L328.973 111.936V112.256L328.748 113.384H322.657L323.785 116.091L323.559 117.219L322.883 117.444C322.759 120.341 322.759 120.341 322.883 121.505C322.961 121.876 323.069 122.242 323.205 122.596C323.38 122.993 323.573 123.382 323.785 123.76L323.559 124.663L322.657 124.888C322.714 127.834 322.714 127.834 322.883 128.949C322.973 129.287 323.079 129.587 323.221 129.903C323.342 130.135 323.465 130.366 323.591 130.595L323.785 130.979C323.844 131.349 323.844 131.349 323.841 131.669L323.785 132.107L322.883 132.558C322.86 133.135 322.844 133.713 322.833 134.29L322.815 134.877C322.784 135.442 322.79 136.008 322.833 136.573C322.883 136.844 322.883 136.844 322.973 137.107C323.152 137.506 323.355 137.893 323.582 138.267L323.785 138.648L323.846 139.009C323.841 139.325 323.841 139.325 323.785 139.776L322.883 140.453V141.355L323.09 141.147L325.129 139.111L325.621 138.619L326.149 138.093L331.533 132.713L331.754 132.492L334.024 130.225L335.188 129.061L335.422 128.829L345.411 118.852L347.98 116.285C349.239 115.05 350.447 113.764 351.603 112.432C351.95 112.04 352.311 111.66 352.685 111.293L352.924 111.047L353.696 110.271L353.967 109.998L355.379 108.577C355.864 108.094 356.347 107.608 356.827 107.118L358.485 105.448C358.733 105.196 358.983 104.946 359.234 104.699L359.45 104.474C359.66 104.271 359.863 104.084 360.102 103.91C360.47 103.73 360.842 103.587 361.23 103.459C361.313 103.683 361.388 103.908 361.456 104.136C361.478 104.391 361.493 104.649 361.501 104.909L361.505 105.137L361.521 105.897L361.535 106.448L361.566 107.964L361.604 109.606L361.668 112.47L361.76 116.677L361.918 123.643L362.135 133.442L362.211 136.844L362.229 137.692L362.362 143.617C362.498 149.834 362.641 156.051 362.791 162.268L362.834 164.106C362.969 169.867 362.969 169.867 363.037 172.522L363.152 177.368L363.161 177.735C363.251 181.55 363.299 185.36 363.26 189.176C362.975 189.492 362.674 189.793 362.358 190.079C361.964 190.367 361.561 190.643 361.149 190.904L360.551 191.297L359.069 192.262L357.81 193.085L357.224 193.467L356.863 193.704L356.547 193.909L356.267 194.139C356.01 194.486 356.01 194.486 355.816 194.816C355.744 195.12 355.744 195.12 355.724 195.425L355.697 195.756L355.674 196.099L355.649 196.449C355.628 196.73 355.609 197.013 355.591 197.297C354.147 198.412 352.631 199.429 351.052 200.342C349.298 201.381 347.563 202.452 345.848 203.557L345.494 203.784L344.053 204.714L341.481 206.363L341.113 206.597L340.387 207.062C337.531 208.889 337.531 208.889 336.304 209.685L336.07 209.839L335.612 210.134C333.92 211.235 332.212 212.306 330.5 213.373C328.825 214.417 327.156 215.468 325.493 216.527L325.181 216.723C324.114 217.4 323.051 218.084 321.994 218.776L321.728 218.95C321.319 219.214 320.91 219.481 320.503 219.75C319.773 220.235 319.012 220.669 318.225 221.052C317.766 221.303 317.329 221.591 316.919 221.914C316.011 222.557 315.076 223.159 314.115 223.718C312.774 224.514 311.453 225.341 310.151 226.199C308.478 227.294 306.791 228.37 305.092 229.425C303.332 230.52 301.579 231.625 299.832 232.741C298.246 233.753 296.654 234.753 295.054 235.741L294.761 235.922L294.174 236.285L293.876 236.47L293.579 236.652C292.37 237.397 291.164 238.147 289.963 238.901L289.62 239.116C287.88 240.206 286.143 241.304 284.409 242.409C282.895 243.378 281.372 244.332 279.841 245.274C278.363 246.182 276.897 247.109 275.443 248.055C273.668 249.204 271.882 250.335 270.083 251.446L269.74 251.66L269.097 252.059C268.6 252.367 268.106 252.685 267.618 253.013L266.49 252.788L266.264 252.111C265.897 251.94 265.52 251.79 265.136 251.66C264.847 251.601 264.572 251.57 264.279 251.552C263.852 251.538 263.424 251.55 262.998 251.588C262.655 251.66 262.655 251.66 262.299 251.795C261.562 252.15 260.852 252.557 260.174 253.013L259.271 252.788L259.046 252.562V224.366H240.549L241 223.463C241.203 223.206 241.203 223.206 241.408 222.999L241.65 222.755L241.914 222.493L242.198 222.209L242.976 221.433L243.824 220.587L245.308 219.103L247.519 216.899L251.234 213.188L254.918 209.512L255.15 209.279L256.312 208.118L265.057 199.383L265.308 199.135L266.557 197.888L266.808 197.64L272.56 191.897L272.808 191.649L278.431 186.032L278.671 185.793L280.8 183.666C284.531 179.936 288.264 176.209 292 172.484L294.305 170.183C295.349 169.145 296.382 168.108 297.33 166.978C297.717 166.511 298.155 166.088 298.634 165.717C299.196 165.272 299.706 164.765 300.154 164.205C300.971 163.258 301.835 162.369 302.719 161.487L303.195 161.014L304.181 160.028L306.418 157.788L306.885 157.323L307.533 156.676L307.724 156.484C307.887 156.323 308.052 156.168 308.221 156.017C308.491 155.864 308.491 155.864 308.672 155.792L308.897 155.115H307.544L307.363 154.555L307.002 153.45C306.693 152.516 306.693 152.516 306.511 152.142L306.387 151.912L306.19 151.506C306.179 151.143 306.179 151.143 306.19 150.829L310.603 149.106C312.881 148.215 315.159 147.346 317.469 146.543L317.695 146.092L317.476 146.146C315.669 146.59 313.842 146.943 312.001 147.206C311.338 147.3 310.674 147.397 310.012 147.497L309.653 147.551C308.945 147.651 308.259 147.694 307.544 147.671L307.467 147.436L307.002 146.006C306.822 145.465 306.642 144.937 306.387 144.425L306.19 144.062L306.416 143.16L306.621 143.078L309.265 142.045L309.479 141.962C312.228 140.882 314.967 139.777 317.695 138.648L317.37 138.7L312.759 139.422L310.67 139.751C309.809 139.887 308.965 140.02 308.092 140.022L307.544 140.002L307.46 139.744L307.122 138.705L307.002 138.337C306.822 137.795 306.642 137.268 306.387 136.756L306.19 136.392L306.416 135.49L309.439 134.227L310.846 133.638C312.634 132.88 314.432 132.144 316.24 131.432L316.601 131.29L316.932 131.164L317.216 131.053L317.469 130.979H317.92V130.528L317.728 130.579C315.779 131.109 313.817 131.464 311.825 131.775C311.197 131.872 310.569 131.972 309.942 132.075L308.897 132.24L308.55 132.294C308.212 132.332 307.884 132.339 307.544 132.332L307.467 132.077L307.122 130.922L307.002 130.521C306.845 129.948 306.639 129.389 306.387 128.852L306.19 128.497L306.416 127.595L306.734 127.473L311.284 125.725L312.782 125.15L313.346 124.933C314.725 124.402 316.099 123.861 317.469 123.309L315.834 123.492L315.579 123.521C314.528 123.642 313.478 123.781 312.43 123.941L312.13 123.986L310.673 124.218C309.856 124.364 309.029 124.444 308.2 124.457L307.544 124.437L307.467 124.202L307.002 122.772C306.822 122.231 306.642 121.703 306.387 121.191L306.19 120.828L306.416 119.926L309.229 118.85L310.537 118.349C312.919 117.436 315.305 116.533 317.695 115.64L317.313 115.694L312.43 116.393C309.45 116.824 309.45 116.824 308.045 116.783L307.769 116.768L307.544 116.542L307.318 113.61L301.453 113.384C301.453 111.128 301.453 111.128 301.553 110.452C301.601 110.267 301.652 110.083 301.706 109.901L301.796 109.594C302.003 108.946 302.258 108.314 302.559 107.704C302.894 107.062 303.279 106.446 303.709 105.863C304.258 105.165 304.861 104.512 305.514 103.91C306.126 103.382 306.783 102.907 307.476 102.491C308.29 102.056 309.143 101.701 310.025 101.429L310.429 101.293L310.927 101.203H312.732V107.068H317.469V101.203L317.695 100.978Z" fill="#1DCAD5"/>
<path d="M456.647 251.66L457.549 252.111L457.874 252.93L457.964 253.156C458.133 253.588 458.264 254.034 458.355 254.489C458.508 255.497 458.501 256.519 458.526 257.536C458.578 259.474 458.684 261.389 458.973 263.306L459.009 263.566C459.076 264.039 459.153 264.509 459.28 264.973C459.39 265.283 459.527 265.583 459.69 265.869C459.874 266.174 460.062 266.476 460.256 266.773L461.835 266.999C461.858 265.878 461.847 264.777 461.731 263.66C461.66 263.046 461.62 262.429 461.61 261.811C461.698 260.974 461.849 260.144 462.061 259.329L462.963 258.653C463.207 258.939 463.433 259.24 463.64 259.555C463.735 259.792 463.735 259.792 463.798 260.029C463.832 260.199 463.865 260.372 463.895 260.548L463.949 260.836C464.156 262.048 464.211 263.275 464.28 264.5C464.495 268.312 464.495 268.312 464.91 270.101C465.005 270.496 465.108 270.891 465.219 271.285L466.121 272.187L467.926 271.961C468.142 271.285 468.336 270.64 468.445 269.938C468.464 269.783 468.482 269.627 468.499 269.469L468.528 269.207C468.652 267.967 468.677 266.715 468.708 265.467L468.742 264.493L468.749 264.197C468.76 263.92 468.778 263.66 468.828 263.39C468.956 263.078 469.107 262.777 469.279 262.487L470.181 262.713L470.633 263.39L470.642 263.789C470.657 264.29 470.673 264.79 470.691 265.289L470.712 265.932C470.73 266.667 470.757 267.398 470.858 268.127C471.021 268.894 471.242 269.654 471.535 270.382C471.738 270.789 471.95 271.138 472.212 271.51L473.791 271.736L474.228 270.565L474.352 270.236L474.474 269.909L474.585 269.611C474.731 269.125 474.842 268.629 474.918 268.127C474.948 267.73 474.952 267.335 474.955 266.938L474.957 266.595L474.964 265.862L474.975 264.698C474.99 263.594 475.001 262.49 475.009 261.387C475.013 260.71 475.021 260.033 475.031 259.357C475.036 259.101 475.038 258.845 475.038 258.59C475.038 257.782 475.045 256.974 475.144 256.171C475.279 255.478 475.472 254.801 475.721 254.139C475.818 253.918 475.929 253.724 476.062 253.523C476.288 253.225 476.288 253.225 476.506 252.977C476.723 252.788 476.723 252.788 476.933 252.648L477.174 252.562C477.513 252.54 477.513 252.54 477.88 252.549L478.248 252.553L478.528 252.562C479.01 252.899 479.463 253.276 479.881 253.69C480.153 254.014 480.397 254.359 480.612 254.723C480.912 255.268 481.169 255.836 481.379 256.422C481.69 257.317 481.938 258.226 482.096 259.165C482.43 261.33 482.509 263.503 482.592 265.691C482.667 267.524 482.775 269.322 483.134 271.127L483.213 271.54C483.321 272.036 483.438 272.507 483.626 272.979C483.827 273.425 484.054 273.859 484.307 274.278C484.449 274.477 484.449 274.477 484.618 274.668C484.909 274.916 485.205 275.129 485.52 275.345H487.099C487.593 274.95 487.593 274.95 487.902 274.639C488.065 274.447 488.065 274.447 488.227 274.217C488.453 273.801 488.655 273.372 488.834 272.934L488.972 272.613C489.242 271.937 489.441 271.246 489.594 270.534C489.962 268.684 490.032 266.769 490.167 264.892C490.37 262.084 490.37 262.084 490.564 261.222C490.722 260.651 490.921 260.095 491.16 259.555L492.062 259.329C492.468 259.916 492.854 260.507 493.19 261.134C493.46 261.725 493.7 262.325 493.934 262.93L494.067 263.268L494.18 263.57L494.318 263.841C494.559 264.103 494.559 264.103 494.769 264.292L495.897 264.066C496.251 263.348 496.543 262.6 496.77 261.831C496.937 261.222 497.097 260.614 497.25 260.006L497.927 259.781L499.055 263.164H499.731C500.167 261.463 500.167 261.463 500.232 260.629C500.259 260.123 500.268 259.616 500.277 259.111L500.289 258.558C500.301 258.081 500.31 257.604 500.318 257.126L500.349 255.655L500.408 252.788L500.859 252.111L502.213 252.337C502.635 252.908 503.012 253.512 503.341 254.141C503.465 254.453 503.548 254.759 503.623 255.086C504.105 257.714 504.06 260.428 504.085 263.09L504.103 264.603L504.135 267.452L504.171 270.703L504.243 277.375H507.175C507.822 273.894 508.374 270.397 508.833 266.886L508.899 266.385L509.445 262.054L509.769 259.483L509.95 258.046C509.993 257.682 510.039 257.317 510.087 256.952L510.133 256.564C510.182 256.199 510.241 255.851 510.333 255.495C510.532 255.031 510.758 254.579 511.01 254.141L512.138 254.367C512.32 254.544 512.486 254.736 512.634 254.942L512.815 255.269C513.036 255.926 513.148 256.62 513.279 257.299L513.545 258.63C513.591 258.866 513.648 259.099 513.717 259.329C513.852 259.641 514.006 259.932 514.168 260.232L515.07 260.006C515.421 259.275 515.723 258.522 515.973 257.75C516.334 256.413 516.6 255.048 516.875 253.69L517.326 253.239L518.228 253.465C518.511 254.121 518.737 254.8 518.905 255.495C519.261 257.435 519.383 259.426 519.48 261.396L519.494 261.693C519.629 264.565 519.616 267.439 519.611 270.315V272.318C519.616 274.986 519.616 277.655 519.532 280.321C519.387 285.437 519.313 290.554 519.309 295.671C519.295 299.373 519.285 303.075 519.277 306.776V307.076L519.273 308.588C519.25 315.657 519.23 322.727 519.214 329.796L519.205 332.999L519.185 339.518V339.823L519.131 359.709C518.929 359.833 518.722 359.949 518.51 360.057L518.228 360.16C517.791 360.223 517.358 360.219 516.916 360.217H514.245L512.169 360.214L509.081 360.212L503.886 360.208L498.743 360.203H496.799C492.964 360.203 489.129 360.2 485.295 360.194L474.122 360.185H470.317L463.27 360.181H462.943L441.308 360.16L441.083 359.935V359.705L441.019 345.992L441.01 344.325V343.991L440.988 339.353C440.979 336.692 440.966 334.028 440.95 331.364V331.048C440.918 325.914 440.857 320.793 440.593 315.666C440.334 310.573 440.345 305.482 440.361 300.381L440.365 297.643C440.365 292.486 440.379 287.334 440.546 282.178C440.64 279.216 440.652 276.256 440.636 273.29C440.628 271.865 440.625 270.438 440.627 269.011V268.589C440.627 259.756 440.627 259.756 441.168 256.032C441.179 255.941 441.192 255.85 441.207 255.756C441.288 255.208 441.387 254.674 441.534 254.141C441.723 253.673 441.949 253.22 442.21 252.788L443.338 253.013C443.638 253.868 443.925 254.728 444.076 255.621C444.196 256.501 444.274 257.387 444.353 258.272C444.541 260.329 444.856 262.289 445.368 264.292H446.496C446.759 263.782 446.985 263.255 447.173 262.713C447.342 262.027 447.43 261.326 447.525 260.626L447.642 259.81C447.668 259.644 447.691 259.477 447.712 259.307C447.746 259.088 447.798 258.869 447.85 258.653C447.983 258.405 448.129 258.202 448.301 257.976H449.203C449.434 258.391 449.631 258.823 449.794 259.269C450.119 260.345 450.2 261.502 450.345 262.614L450.611 264.603C450.678 265.093 450.757 265.56 450.897 266.033C451.003 266.358 451.115 266.68 451.233 266.999L452.136 267.224C452.447 266.958 452.447 266.958 452.636 266.767L452.812 266.548C452.948 266.284 453.042 266.024 453.135 265.745L453.234 265.406L453.347 265.034C454.136 262.246 454.61 259.336 455.039 256.474C455.057 256.376 455.072 256.277 455.084 256.176C455.153 255.729 455.217 255.28 455.276 254.829C455.341 254.369 455.415 253.918 455.519 253.465C455.711 252.924 455.937 252.397 456.196 251.886L456.647 251.66ZM317.695 227.073H318.146V267.224H323.785C324.256 267.967 324.659 268.751 324.99 269.566L325.344 270.423L325.592 271.025L326.776 273.895L327.414 275.442L327.536 275.731C327.962 276.753 328.374 277.781 328.772 278.814C328.843 279.01 328.91 279.207 328.973 279.405C329.018 279.732 329.041 280.037 329.032 280.366L329.016 280.646L329.007 280.948L328.973 281.661C328.702 282.132 328.401 282.584 328.071 283.015C327.622 283.511 327.117 283.951 326.618 284.397L326.235 284.747C325.593 285.339 324.923 285.901 324.227 286.43L324.011 286.624L323.868 286.847L323.785 287.075C323.763 287.469 323.759 287.864 323.774 288.259L323.785 288.879C324.056 289.353 324.347 289.804 324.687 290.233C325.157 290.74 325.671 291.203 326.183 291.665L326.911 292.335C327.43 292.819 327.951 293.301 328.475 293.779C329.132 294.361 329.75 294.985 330.327 295.647C330.913 296.416 331.45 297.221 331.973 298.035C332.131 298.353 332.131 298.353 332.253 298.757C332.312 299.008 332.357 299.247 332.377 299.502C332.385 299.772 332.388 300.043 332.388 300.314V300.629C332.393 300.975 332.394 301.321 332.393 301.667L332.395 302.421L332.402 304.491L332.409 306.492C332.421 309.209 332.43 311.927 332.436 314.644V314.899L332.44 316.178C332.463 322.139 332.482 328.099 332.499 334.059V334.334L332.508 337.062L332.582 359.935C332.393 360.047 332.393 360.047 332.131 360.16C331.856 360.187 331.856 360.187 331.545 360.187H327.947L325.775 360.185L322.637 360.181C319.291 360.181 315.945 360.178 312.599 360.172H310.76L298.07 360.16L297.957 359.998L297.844 359.709C297.823 359.379 297.814 359.048 297.817 358.717V358.405L297.822 357.372V356.628L297.826 354.573L297.831 352.588L297.844 347.264L297.853 344.745L297.88 335.577L297.883 335.036L297.887 333.947V333.674C297.898 330.756 297.905 327.84 297.91 324.924C297.916 321.839 297.925 318.755 297.937 315.671L297.939 314.656V314.403C297.945 313.06 297.949 311.719 297.95 310.379C297.95 309.031 297.955 307.683 297.964 306.334L297.968 304.142C297.968 303.474 297.971 302.805 297.977 302.134V301.412C297.971 299.948 297.971 299.948 298.07 299.256C298.174 298.827 298.318 298.421 298.48 298.013C298.648 297.628 298.849 297.258 299.08 296.908L299.464 296.436L299.689 296.165C300.529 295.173 301.451 294.255 302.369 293.334L302.602 293.102C303.447 292.256 304.3 291.433 305.229 290.682C305.404 290.536 305.574 290.386 305.739 290.233C305.987 289.901 305.987 289.901 306.177 289.585L306.416 289.105V287.075C306.13 286.688 305.829 286.311 305.514 285.947C305.166 285.639 304.804 285.348 304.429 285.074C303.707 284.51 303.008 283.942 302.356 283.297L302.166 283.112C301.994 282.937 301.832 282.755 301.679 282.563C301.547 282.356 301.428 282.14 301.323 281.916C301.228 281.661 301.228 281.661 301.18 281.408C301.159 281.138 301.151 280.867 301.156 280.596L301.158 280.299C301.171 279.911 301.201 279.536 301.282 279.155C301.447 278.573 301.688 278.027 301.932 277.474L302.166 276.92C302.344 276.495 302.524 276.073 302.708 275.652C303.055 274.84 303.399 274.025 303.741 273.209L304.711 270.904L304.819 270.646L305.638 268.716L305.904 268.088L306.055 267.727L306.19 267.45L306.416 267.224H312.055V230.682C316.567 227.749 316.567 227.749 317.695 227.073ZM481.798 152.119C482.222 152.198 482.622 152.309 483.028 152.453C483.494 152.64 483.949 152.85 484.392 153.085L484.656 153.222C485.099 153.462 485.526 153.731 485.933 154.028C486.285 154.311 486.615 154.621 486.919 154.955C487.396 155.502 487.833 156.084 488.227 156.694C488.511 157.195 488.76 157.715 488.972 158.251C489.115 158.673 489.228 159.105 489.31 159.543C489.384 160.048 489.389 160.549 489.387 161.061L489.389 161.411V162.956C489.362 166.018 489.26 169.079 489.082 172.137L488.978 174.207L488.775 178.317L488.764 178.561L488.629 181.259C487.938 194.985 487.938 194.985 487.936 199.187V199.875C487.936 201.168 487.959 202.438 488.173 203.717C488.331 204.615 488.595 205.461 488.904 206.32L489.051 206.755C489.422 207.898 489.892 209.007 490.454 210.069C491.083 211.152 491.83 212.144 492.626 213.107C493.263 213.882 493.961 214.603 494.715 215.264C495.698 216.069 496.767 216.735 497.864 217.373C498.883 217.965 499.952 218.469 501.058 218.878C502.27 219.286 503.513 219.598 504.775 219.811C505.371 219.879 505.971 219.899 506.571 219.92C507.829 219.965 509.093 220.012 510.331 220.267C510.985 220.427 511.608 220.63 512.23 220.887C512.877 221.176 513.5 221.514 514.094 221.9C514.824 222.419 515.511 222.995 516.149 223.624C516.66 224.128 517.131 224.671 517.556 225.25C518.057 225.994 518.51 226.761 518.882 227.58C519.198 228.356 519.446 229.157 519.622 229.976C519.758 230.659 519.825 231.325 519.848 232.022C519.855 232.778 519.842 233.535 519.807 234.291L519.356 234.742H440.631L440.18 233.614C440.135 233.177 440.135 233.177 440.153 232.759L440.162 232.529L440.207 231.796L440.225 231.539C440.284 230.686 440.37 229.847 440.568 229.013C440.725 228.456 440.921 227.914 441.157 227.386C441.525 226.616 441.955 225.876 442.443 225.176C442.93 224.505 443.469 223.874 444.056 223.287C444.611 222.786 445.208 222.333 445.84 221.934C446.557 221.49 447.304 221.096 448.075 220.757C448.662 220.536 449.246 220.373 449.857 220.245C450.945 220.053 452.041 220.005 453.142 219.956C454.442 219.904 455.736 219.746 457.01 219.482C458.188 219.214 459.339 218.845 460.452 218.377C461.643 217.841 462.785 217.204 463.865 216.471C464.73 215.852 465.559 215.184 466.347 214.47C466.977 213.901 467.558 213.28 468.084 212.613C468.85 211.574 469.527 210.471 470.105 209.316C470.601 208.346 471.061 207.369 471.39 206.327C471.619 205.581 471.818 204.827 471.986 204.064L472.042 203.839C472.137 203.421 472.207 203.015 472.234 202.589C472.245 202.189 472.249 201.79 472.248 201.393L472.25 200.931L472.252 199.679V198.876C472.248 194.581 472.049 190.298 471.835 186.012L471.684 182.892C471.536 179.793 471.385 176.693 471.23 173.594L471.104 171.072L471.03 169.597C470.903 167.191 470.817 164.783 470.772 162.374L470.766 161.979L470.754 161.264C470.754 160.714 470.777 160.17 470.858 159.624C471.044 158.801 471.298 157.996 471.618 157.215C471.816 156.816 472.047 156.434 472.309 156.074C472.63 155.661 472.975 155.265 473.339 154.889L473.542 154.668C473.879 154.309 474.241 153.973 474.625 153.665C474.997 153.398 475.392 153.166 475.805 152.97C476.608 152.609 477.435 152.304 478.279 152.056C478.64 151.984 478.64 151.984 479.001 151.957C479.942 151.957 480.867 151.986 481.798 152.119ZM258.82 297.226H259.497L259.488 297.411C259.228 303.224 259.24 309.037 259.249 314.852V319.084C259.249 324.033 259.253 328.982 259.26 333.931V336.437L259.271 355.423C259.124 355.504 258.974 355.58 258.82 355.649C258.482 355.678 258.482 355.678 258.085 355.68L257.864 355.683L257.135 355.687H256.616C256.255 355.69 255.892 355.691 255.527 355.689L254.433 355.696C252.482 355.712 250.555 355.674 248.618 355.444L248.381 355.416C247.181 355.279 245.995 355.038 244.837 354.695C243.753 354.339 242.7 353.897 241.688 353.373C240.94 352.972 240.225 352.511 239.55 351.997C239.039 351.579 238.545 351.142 238.068 350.686L237.797 350.434C237.255 349.917 236.75 349.362 236.288 348.773C235.549 347.753 234.898 346.671 234.341 345.541C233.942 344.708 233.609 343.845 233.344 342.96C232.993 341.679 232.752 340.371 232.622 339.049L232.591 338.769C232.306 335.889 232.419 332.99 232.482 330.1C232.5 329.323 232.515 328.544 232.528 327.764C232.588 324.274 232.694 320.787 232.879 317.302L233.148 317.274C234.048 317.184 234.937 317.089 235.812 316.85C236.114 316.724 236.114 316.724 236.376 316.582C236.613 316.428 236.841 316.259 237.057 316.077C237.365 315.79 237.648 315.477 237.903 315.143C238.026 314.949 238.139 314.747 238.241 314.538C238.405 314.116 238.531 313.681 238.62 313.237C238.848 312.116 239.026 310.988 239.195 309.858C239.548 309.529 239.925 309.227 240.323 308.955C241.023 308.527 241.749 308.139 242.471 307.744C243.101 307.398 243.729 307.05 244.357 306.7L244.553 306.591C246.743 305.369 248.893 304.078 251.042 302.79C251.728 302.38 252.417 301.974 253.109 301.572C254.462 300.783 255.766 299.971 256.98 298.974C257.63 298.431 258.245 297.847 258.82 297.226ZM310.927 158.95H319.048C319.393 160.076 319.636 161.231 319.774 162.401C319.865 163.079 319.952 163.757 320.036 164.436L320.316 166.633C320.41 167.385 320.508 168.135 320.609 168.884C320.745 169.919 320.877 170.954 321.006 171.99L321.223 173.659C321.268 174.017 321.295 174.377 321.304 174.74C321.251 175.269 321.176 175.796 321.078 176.319L320.832 176.578L319.547 177.947L318.985 178.543L318.809 178.728C318.659 178.896 318.513 179.071 318.371 179.251C318.243 179.567 318.243 179.567 318.146 179.928C318.116 180.28 318.116 180.28 318.116 180.661V190.478C318.123 200.572 318.231 210.664 318.371 220.757L317.731 221.296L317.55 221.449C317.015 221.888 316.446 222.285 315.849 222.636L315.536 222.83L314.566 223.421L313.898 223.829L312.281 224.817L311.83 224.366V179.251L309.8 176.996L308.897 175.868C309.028 173.792 309.22 171.74 309.484 169.678L309.585 168.85L310.077 164.948L310.291 163.247L310.393 162.439L310.576 160.984L310.616 160.671L310.65 160.405C310.727 159.917 310.83 159.435 310.927 158.95ZM257.692 269.706H258.369C258.795 271.623 259.12 273.525 259.213 275.487C259.247 276.327 259.27 277.167 259.28 278.007C259.302 279.246 259.315 280.485 259.319 281.724C259.337 283.664 259.247 285.545 258.951 287.463C258.836 288.183 258.668 288.893 258.448 289.588L258.313 289.964L258.166 290.386C257.9 291.135 257.572 291.86 257.187 292.554C256.92 292.994 256.637 293.423 256.339 293.842L256.091 294.216C255.879 294.501 255.662 294.758 255.414 295.01C255.004 295.387 254.55 295.707 254.099 296.032L253.77 296.271C252.551 297.129 251.301 297.941 250.023 298.708L249.651 298.933C247.698 300.128 245.723 301.283 243.725 302.4L243.127 302.736L242.011 303.357L241.681 303.544L241.368 303.713L241.102 303.862C240.774 303.993 240.774 303.993 240.486 304.06C240.206 304.116 239.926 304.169 239.647 304.218C240.013 299.975 240.384 295.732 240.759 291.489L240.885 290.032C241.043 288.225 241.203 286.423 241.458 284.625L241.512 284.244C241.608 283.539 241.753 282.841 241.945 282.155C242.095 281.747 242.275 281.35 242.484 280.969C242.691 280.62 242.923 280.286 243.177 279.969C243.508 279.591 243.866 279.237 244.248 278.909C246.369 277.206 248.701 275.76 250.964 274.262C252.5 273.243 254.029 272.213 255.549 271.172L255.881 270.946L257.692 269.706ZM440.406 238.126C446.293 238.12 452.181 238.127 458.068 238.148L464.483 238.168L468.736 238.182H469.026L470.479 238.189L490.539 238.256H490.851L493.927 238.266L500.196 238.288H500.487L519.582 238.351L519.807 238.577V243.088L519.582 243.314H440.406C440.18 242.412 440.18 242.412 440.153 242.15V241.69L440.158 241.435V241.164L440.167 240.325L440.169 239.75L440.18 238.351L440.406 238.126ZM440.406 246.923H519.582L519.807 247.6C519.83 247.911 519.839 248.206 519.837 248.516V248.757C519.835 248.972 519.825 249.188 519.807 249.404L519.582 249.855H440.406V246.923Z" fill="#F4FCFE"/>
<path d="M464.993 316.625H478.527L478.753 316.85V330.385L478.527 330.61H465.219L464.993 330.385V316.625ZM469.245 299.903H473.235C474.258 299.899 475.281 299.899 476.303 299.903H476.578C477.341 299.908 477.975 300.027 478.753 300.158V313.692L478.527 313.918H464.993C464.734 311.843 464.734 311.843 464.763 310.812L464.77 310.458L464.794 309.323L464.81 308.524L464.855 306.449C464.873 305.738 464.888 305.028 464.9 304.32L464.993 300.158C466.414 299.935 467.808 299.899 469.245 299.903ZM482.136 316.625H495.671V330.385L495.445 330.61H482.136V316.625ZM482.136 300.158H495.671V313.692L495.445 313.918H482.136V300.158Z" fill="#073760"/>
<path d="M397.547 148.122C398.88 148.844 398.88 148.844 399.482 149.286C399.743 149.495 400 149.708 400.254 149.927C400.198 150.232 400.123 150.533 400.028 150.829C399.871 151.087 399.697 151.336 399.51 151.573L399.009 152.221C398.699 152.621 398.391 153.023 398.084 153.427L397.892 153.68C397.234 154.555 396.593 155.442 395.968 156.342L395.801 156.579L395.133 157.535C394.528 158.401 393.916 159.262 393.3 160.12L392.943 160.621L392.447 161.316C392.402 161.383 392.354 161.451 392.303 161.519C391.978 161.99 391.695 162.489 391.457 163.01H391.005L390.945 163.256C390.838 163.632 390.707 164.002 390.554 164.363C390.231 164.864 389.878 165.344 389.496 165.802L389.19 166.193C388.653 166.876 388.092 167.54 387.509 168.184C386.72 169.055 386.052 170.011 385.375 170.972C384.636 172.019 383.881 173.053 383.11 174.076L382.939 174.304C381.803 175.811 380.658 177.309 379.501 178.8L378.599 179.025L376.569 177.221L376.794 176.318C376.93 176.068 376.93 176.068 377.081 175.87L377.255 175.637L377.446 175.394L377.647 175.13L378.076 174.566C378.307 174.268 378.537 173.969 378.764 173.668L379.711 172.421C380.413 171.496 381.11 170.567 381.8 169.635L381.996 169.369C382.998 168.005 383.96 166.613 384.883 165.196C385.693 163.963 386.545 162.759 387.439 161.586C388.368 160.378 389.268 159.148 390.137 157.896C390.651 157.152 391.073 156.385 391.457 155.566L392.133 155.34L392.293 155.112C393.488 153.411 394.718 151.734 395.982 150.082L396.18 149.823L396.737 149.096L396.906 148.878C397.109 148.614 397.312 148.359 397.547 148.122ZM425.969 153.987L426.871 154.212L428.225 156.468V157.37L427.995 157.497C425.864 158.672 423.763 159.9 421.692 161.178C419.795 162.353 417.874 163.491 415.931 164.589L415.683 164.729C415.328 164.929 414.972 165.126 414.614 165.32C414.239 165.491 414.239 165.491 413.991 165.565C413.775 165.62 413.557 165.67 413.337 165.717L413.179 165.89C412.941 166.143 412.692 166.386 412.435 166.619C412.081 166.863 411.713 167.087 411.334 167.291L411.025 167.467L410.38 167.83L409.396 168.387L408.769 168.744L408.474 168.911C408.096 169.13 407.7 169.319 407.292 169.475L407.021 169.551C406.796 169.243 406.574 168.933 406.358 168.622L406.168 168.363C405.979 168.096 405.812 167.815 405.668 167.521C405.558 167.076 405.483 166.624 405.442 166.168C408.035 164.525 410.668 162.946 413.337 161.431L413.563 160.98L413.906 160.862C414.537 160.639 415.157 160.411 415.755 160.104C416.061 159.924 416.364 159.74 416.667 159.552C416.946 159.377 417.227 159.204 417.508 159.033L417.977 158.744C419.076 158.07 420.19 157.42 421.302 156.764L422.822 155.868C423.872 155.244 424.921 154.617 425.969 153.987ZM406.638 124.85C407.292 124.814 407.946 124.841 408.6 124.888L409.954 125.79C410.162 126.194 410.34 126.613 410.488 127.042C410.567 127.317 410.628 127.584 410.669 127.866C410.693 128.255 410.684 128.646 410.642 129.034C410.584 129.386 410.505 129.734 410.405 130.076C410.026 131.076 409.566 132.042 409.029 132.966C407.581 135.461 405.774 137.737 403.926 139.943C403.416 140.523 402.953 141.142 402.539 141.795L402.284 142.257H401.833C401.75 142.034 401.675 141.808 401.607 141.58C401.574 141.226 401.574 141.226 401.567 140.843L401.558 140.403L401.553 139.929L401.551 139.686C401.543 139.072 401.539 138.458 401.537 137.845V137.574C401.528 133.852 401.528 133.852 401.763 132.354C401.901 131.56 402.101 130.782 402.361 130.02C402.683 129.146 403.067 128.296 403.511 127.478C403.819 126.971 404.164 126.488 404.544 126.034C404.729 125.831 404.905 125.65 405.12 125.484C405.43 125.282 405.757 125.106 406.096 124.958C406.344 124.888 406.344 124.888 406.638 124.85ZM446.947 178.574C447.669 178.637 448.375 178.75 449.084 178.915C449.55 179.046 449.995 179.201 450.437 179.398C450.948 179.646 451.44 179.932 451.91 180.252C452.133 180.415 452.343 180.589 452.542 180.776C452.684 180.931 452.822 181.09 452.954 181.254L453.263 181.732L453.489 183.311C453.263 183.853 453.027 184.387 452.736 184.897C452.587 185.116 452.587 185.116 452.427 185.287C452.161 185.501 451.88 185.693 451.585 185.862C451.319 185.98 451.08 186.072 450.8 186.147C450.42 186.235 450.034 186.292 449.645 186.318C449.121 186.335 448.596 186.31 448.075 186.244C447.523 186.118 446.976 185.966 446.438 185.79L446.203 185.716C444.308 185.118 442.537 184.265 440.755 183.392C440.085 183.063 439.413 182.738 438.741 182.416L438.053 182.077C437.43 181.762 436.782 181.499 436.115 181.292C435.818 181.208 435.518 181.129 435.218 181.055L435.443 180.379C436.774 179.806 438.121 179.278 439.528 178.928C441.953 178.398 444.48 178.405 446.947 178.574ZM447.737 143.737C448.082 143.746 448.414 143.777 448.752 143.836C449.054 143.904 449.318 143.994 449.611 144.105C449.984 144.287 449.984 144.287 450.331 144.513C450.751 144.851 451.098 145.237 451.459 145.641L451.684 147.445C451.532 147.845 451.35 148.233 451.139 148.605C451.003 148.808 450.857 148.981 450.69 149.157C450.371 149.465 450.028 149.747 449.666 150.001C449.263 150.256 448.84 150.477 448.4 150.66C447.794 150.886 447.172 151.067 446.539 151.201C444.078 151.657 441.531 151.618 439.034 151.693C437.897 151.73 436.762 151.785 435.628 151.857L435.38 151.873L434.09 151.957C434.227 151.649 434.377 151.348 434.541 151.054C434.761 150.755 434.996 150.469 435.247 150.195C435.313 150.115 435.383 150.036 435.457 149.958C436.136 149.201 436.875 148.501 437.667 147.865C438.538 147.206 439.463 146.638 440.406 146.092L440.726 145.905C441.494 145.462 442.291 145.072 443.113 144.738C444.595 144.215 446.158 143.757 447.737 143.737ZM426.42 179.251L426.838 179.352L427.097 179.476C427.18 179.908 427.259 180.34 427.336 180.774L427.408 181.141L427.471 181.502L427.532 181.831L427.548 182.183C427.485 182.488 427.402 182.786 427.323 183.086C423.03 183.891 418.731 184.662 414.427 185.4L412.466 185.738C411.824 185.851 411.181 185.962 410.538 186.072L409.403 186.271L408.151 186.485L407.784 186.55L407.438 186.609L407.143 186.659C406.653 186.711 406.159 186.695 405.668 186.695L405.217 182.86C406.383 182.567 407.511 182.305 408.69 182.116L409.164 182.039L410.432 181.831L411.776 181.613L417.183 180.728L419.664 180.322L419.924 180.28L422.827 179.81L424.354 179.555L425.15 179.425L425.511 179.359C425.818 179.31 426.114 179.267 426.42 179.251ZM399.126 169.777H400.028L401.382 172.484L400.931 173.386L400.498 173.636C397.663 175.267 394.852 176.938 392.066 178.651C391.11 179.242 390.142 179.813 389.163 180.363L388.495 180.737L387.466 181.317C385.924 182.181 384.396 183.071 382.885 183.988L381.983 183.762L380.629 181.281L380.855 180.604L381.103 180.469C383.288 179.264 385.445 178.008 387.572 176.702L388.556 176.102L388.849 175.921C389.439 175.56 390.008 175.165 390.554 174.739H391.005L391.231 174.288L391.599 174.11C392.235 173.792 392.848 173.433 393.464 173.077L395.659 171.809L396.636 171.245L396.999 171.036C397.712 170.622 398.421 170.202 399.126 169.777ZM399.352 183.762L399.577 187.597C397.896 187.949 396.198 188.208 394.488 188.373L392.873 188.545L392.463 188.59C391.524 188.692 390.587 188.802 389.652 188.919L389.269 188.966L387.807 189.151C386.379 189.336 385.003 189.433 383.562 189.402L383.11 186.018C387.301 185.292 391.501 184.62 395.709 184.001L396.347 183.907C397.378 183.758 398.282 183.762 399.352 183.762Z" fill="#1DCAD5"/>
<path d="M190.816 550.337C190.816 548.666 193.102 547.667 195.273 547.667C198.501 547.667 202.112 550.049 204.303 552.681L210.7 546.937C206.473 541.692 201.844 539.31 195.984 539.31C187.858 539.31 181.671 543.978 181.671 550.049C181.671 561.537 203.227 563.535 203.227 568.607C203.227 570.279 201.113 571.719 198.174 571.719C193.659 571.777 188.588 568.492 185.802 565.764L180.557 572.68C185.014 577.291 191.316 580.076 197.771 580.076C203.688 580.076 212.314 576.138 212.314 568.492C212.314 556.523 190.816 555.178 190.816 550.337ZM270.986 540.193H242.956V579.193H270.986V570.836H251.87V563.036H267.643V554.679H251.87V548.55H270.986V540.193ZM319.284 540.193H302.185V579.193H311.1V564.938H315.211L322.742 579.193H332.213L324.298 564.15C329.139 562.536 332.213 558.348 332.213 552.566C332.213 544.977 326.911 540.193 319.284 540.193ZM323.299 552.566C323.299 555.121 321.57 556.581 319.168 556.581H311.1V548.55H319.168C321.57 548.55 323.299 550.049 323.299 552.566ZM369.483 540.193H360.012L373.383 579.193H382.855L396.226 540.193H386.755L378.109 566.494L369.483 540.193ZM434.495 540.193H425.581V579.193H434.495V540.193ZM485.694 580.076C492.226 580.076 497.682 577.637 501.294 573.391L494.608 567.608C492.553 570.221 489.44 571.719 485.694 571.719C478.97 571.719 474.225 566.763 474.225 559.693C474.225 552.681 478.97 547.667 485.694 547.667C488.941 547.667 491.726 548.819 493.782 550.779L499.622 544.266C496.068 541.077 491.265 539.31 485.694 539.31C473.725 539.31 465.311 547.609 465.311 559.635C465.311 571.623 473.725 580.076 485.694 580.076ZM559.14 540.193H531.11V579.193H559.14V570.836H540.024V563.036H555.797V554.679H540.024V548.55H559.14V540.193ZM598.639 550.337C598.639 548.666 600.925 547.667 603.096 547.667C606.323 547.667 609.935 550.049 612.106 552.681L618.523 546.937C614.296 541.692 609.666 539.31 603.807 539.31C595.68 539.31 589.494 543.978 589.494 550.049C589.494 561.537 611.049 563.535 611.049 568.607C611.049 570.279 608.936 571.719 605.977 571.719C601.482 571.777 596.41 568.492 593.624 565.764L588.38 572.68C592.837 577.291 599.138 580.076 605.593 580.076C611.51 580.076 620.136 576.138 620.136 568.492C620.136 556.523 598.639 555.178 598.639 550.337Z" fill="#073861"/>
<path d="M41.4201 438.531V477.973C41.4201 486.08 36.0408 491.805 28.241 491.805C20.5179 491.805 15.0618 486.08 15.0618 477.973V438.531H0V477.607C0 494.264 11.6614 505.925 28.241 505.925C44.8974 505.925 56.4819 494.264 56.4819 477.607V438.531H41.4201ZM97.4217 438.531H82.3599V504.427H97.4217V438.531ZM140.263 438.531H124.26V504.427H139.322V463.852L164.739 504.427H180.742V438.531H165.68V479.106L140.263 438.531ZM237.493 452.652H257.262V438.531H202.663V452.652H222.431V504.427H237.493V452.652ZM304.157 438.531H288.154L265.561 504.427H281.564L286.175 490.306H306.117L310.747 504.427H326.75L304.157 438.531ZM301.41 476.186H290.882L296.146 459.991L301.41 476.186ZM363.463 438.531H348.401V504.427H363.463V478.069H389.821V504.427H404.883V438.531H389.821V463.948H363.463V438.531ZM493.929 438.531H478.867V504.427H493.929V478.069H520.287V504.427H535.349V438.531H520.287V463.948H493.929V438.531ZM593.809 505.925C614.135 505.925 628.256 491.632 628.256 471.383C628.256 451.153 614.039 437.033 593.809 437.033C573.56 437.033 559.344 451.153 559.344 471.383C559.344 491.709 573.464 505.925 593.809 505.925ZM593.809 491.805C582.417 491.805 574.406 483.429 574.406 471.479C574.406 459.529 582.417 451.153 593.809 451.153C605.202 451.153 613.194 459.529 613.194 471.479C613.194 483.429 605.202 491.805 593.809 491.805ZM668.369 438.531H652.366V504.427H667.428V472.901L681.549 504.427H698.493L712.614 472.901V504.427H727.676V438.531H711.672L690.021 487.578L668.369 438.531ZM801.947 438.531H754.591V504.427H801.947V490.306H769.653V477.127H796.299V463.007H769.653V452.652H801.947V438.531Z" fill="#073861"/>
</svg>
